<svg width="16" height="21" viewBox="0 0 16 21" fill="none" xmlns="http://www.w3.org/2000/svg">
<path d="M7.61621 0C11.7527 -3.61624e-07 15.167 3.38049 15.167 7.47656C15.167 11.582 11.2627 16.7221 8.38593 20.1063C7.98559 20.5772 7.25871 20.5671 6.86408 20.0913C3.97647 16.6102 1.38401e-05 11.7699 0 7.47656C-3.58085e-07 3.38053 3.41419 5.90033e-05 7.61621 0ZM7.58398 4.66699C5.97312 4.66699 4.66699 5.97312 4.66699 7.58398C4.66715 9.19471 5.97322 10.5 7.58398 10.5C9.19455 10.4998 10.4998 9.19457 10.5 7.58398C10.5 5.97327 9.19465 4.66723 7.58398 4.66699Z" fill="#9296A1"/>
</svg>
