<svg width="41" height="42" viewBox="0 0 41 42" fill="none" xmlns="http://www.w3.org/2000/svg">
<path d="M2.8985 9.33791C8.12442 3.06752 19.1778 3.66559 27.587 10.6739C35.8946 17.5976 37.9809 31.0622 34.0567 34.1446C32.5473 35.2386 30.6428 35.3882 28.42 34.1446C25.0901 32.2814 22.3059 29.432 22.0323 29.1026C21.7593 28.7737 20.0672 27.2393 18.7022 28.1709C18.0288 28.5729 17.0861 29.8698 18.7022 31.8428C20.7221 34.3089 22.0012 36.9249 19.3575 37.8164C18.1596 38.2203 16.7794 37.892 15.4473 37.4746C13.1077 36.5291 10.7993 35.163 8.66217 33.3819C0.253007 26.3735 -2.32745 15.6084 2.8985 9.33791Z" fill="#917669"/>
<path d="M14.9683 6.82608C17.2758 7.86019 17.597 8.83478 17.1967 10.3512C16.8551 12.6569 15.1499 12.7479 13.519 12.3174C10.9402 11.6368 10.4329 10.188 10.8331 8.67157C11.2333 7.15518 13.6556 5.89995 14.9683 6.82608Z" fill="#432D22"/>
<path d="M12.4898 26.6523C14.7973 27.6864 15.1184 28.661 14.7182 30.1773C14.3766 32.4831 12.6714 32.574 11.0405 32.1436C8.46172 31.463 7.95433 30.0141 8.35457 28.4977C8.7548 26.9813 11.1771 25.7261 12.4898 26.6523Z" fill="#6B96F9"/>
<path d="M8.842 11.6116C9.84159 13.6085 9.38076 14.6054 7.98262 15.7269C6.05872 17.5597 4.70241 16.8243 3.7789 15.673C2.31866 13.8526 2.98107 12.3562 4.37921 11.2347C5.77734 10.1132 8.51733 10.1832 8.842 11.6116Z" fill="#6B96F9"/>
<path d="M7.7615 18.9702C9.83294 20.4381 9.93089 21.565 9.18305 23.1939C8.31296 25.7077 6.58626 25.5728 5.05332 24.869C2.62951 23.7562 2.4539 22.0767 3.20175 20.4478C3.94959 18.8189 6.66048 17.7599 7.7615 18.9702Z" fill="#FFCC00"/>
<path d="M24.5268 11.137C26.0904 12.8424 25.9565 13.875 24.9677 15.2026C23.6957 17.3041 22.1784 16.8625 20.9461 15.9447C18.9976 14.4935 19.1707 12.9491 20.1595 11.6215C21.1483 10.2939 23.7803 9.84332 24.5268 11.137Z" fill="#C3D2F4"/>
<path d="M31.1357 17.7459C32.6993 19.4513 32.5654 20.4839 31.5766 21.8115C30.3046 23.913 28.7873 23.4714 27.555 22.5536C25.6065 21.1024 25.7796 19.558 26.7684 18.2304C27.7572 16.9028 30.3892 16.4522 31.1357 17.7459Z" fill="#6B96F9"/>
<path d="M32.7881 26.8325C34.3516 28.538 34.2177 29.5706 33.2289 30.8982C31.9569 32.9997 30.4396 32.558 29.2073 31.6402C27.2589 30.1891 27.4319 28.6447 28.4207 27.3171C29.4095 25.9895 32.0415 25.5389 32.7881 26.8325Z" fill="#432D22"/>
<rect width="2.98263" height="44.213" rx="1.49131" transform="matrix(-0.732045 -0.681256 -0.681256 0.732045 33.3037 9.57373)" fill="#432D22"/>
<path fill-rule="evenodd" clip-rule="evenodd" d="M32.4091 5.12794C30.9637 6.68111 30.4645 8.60884 31.3185 9.4036C32.1592 10.186 34.0461 9.54972 35.4915 7.99655C37.0746 6.29549 38.1462 3.24428 38.7291 1.44055C36.9031 2.22544 34.061 3.35289 32.4091 5.12794Z" fill="#6B96F9"/>
<path d="M32.7061 10.2159C33.0361 9.86125 33.0162 9.30616 32.6615 8.9761L31.7625 8.13943C31.4078 7.80936 30.8527 7.82931 30.5227 8.18398L25.9807 13.0646L28.1641 15.0965L32.7061 10.2159Z" fill="#C2C7D1"/>
</svg>
