<svg width="36" height="40" viewBox="0 0 36 40" fill="none" xmlns="http://www.w3.org/2000/svg">
<path d="M18.0557 8V5.25C18.0557 4.69772 18.5034 4.25 19.0557 4.25H28.0557C28.6079 4.25 29.0557 3.80228 29.0557 3.25V1.5" stroke="#432D22"/>
<rect x="26.667" width="4.44444" height="1.77778" rx="0.888889" fill="#6B96F9"/>
<rect x="15" y="7" width="6" height="6" rx="1" fill="#C5D4F4"/>
<path d="M17.7773 25.7778C10.2591 25.7776 4.10352 19.9433 3.59029 12.5553C3.55201 12.0044 4.00338 11.5552 4.55567 11.5552L31 11.5552C31.5523 11.5552 32.0037 12.0044 31.9654 12.5553C31.4521 19.9434 25.2958 25.7778 17.7773 25.7778Z" fill="#6B96F9"/>
<rect x="2.66699" y="23.1111" width="30.2222" height="16.8889" rx="1" fill="#917669"/>
<rect y="23.1111" width="35.5556" height="3.55556" rx="1" fill="#432D22"/>
<rect y="36.4443" width="35.5556" height="3.55556" rx="1" fill="#432D22"/>
<rect x="6.77832" y="29" width="22" height="5" rx="1" fill="#432D22"/>
</svg>
