<svg width="25" height="24" viewBox="0 0 25 24" fill="none" xmlns="http://www.w3.org/2000/svg">
<path d="M12.0487 0.945683C12.2299 0.566122 12.7701 0.566122 12.9513 0.945683L16.2713 7.90344C16.3442 8.05619 16.4894 8.1617 16.6572 8.18382L24.3004 9.19133C24.7174 9.24629 24.8843 9.76013 24.5793 10.0497L18.9881 15.3573C18.8653 15.4738 18.8098 15.6446 18.8406 15.811L20.2443 23.3914C20.3209 23.8049 19.8838 24.1225 19.5142 23.9219L12.7385 20.2444C12.5898 20.1637 12.4102 20.1637 12.2615 20.2444L5.48583 23.9219C5.1162 24.1225 4.67911 23.8049 4.75568 23.3914L6.15935 15.811C6.19017 15.6446 6.1347 15.4738 6.01195 15.3573L0.420689 10.0497C0.115673 9.76013 0.282629 9.24629 0.699582 9.19133L8.34276 8.18382C8.51056 8.1617 8.65578 8.05619 8.72867 7.90344L12.0487 0.945683Z" fill="#4D4D4D"/>
</svg>
