<svg width="39" height="41" viewBox="0 0 39 41" fill="none" xmlns="http://www.w3.org/2000/svg">
<path d="M5.3335 16.0003C5.3335 14.1594 6.82587 12.667 8.66682 12.667H28.6667C30.5077 12.667 32 14.1594 32 16.0003V28.0003C32 31.6821 29.0153 34.6669 25.3334 34.6669H12.0001C8.31825 34.6669 5.3335 31.6821 5.3335 28.0003V16.0003Z" fill="#6B96F9"/>
<path d="M5.3335 18H32V28C32 31.6818 29.0153 34.6666 25.3334 34.6666H12.0001C8.31825 34.6666 5.3335 31.6818 5.3335 28V18Z" fill="#432D22"/>
<path d="M6.6665 36.9998H30.6664C30.6664 38.8407 29.174 40.3331 27.3331 40.3331H9.99983C8.15888 40.3331 6.6665 38.8407 6.6665 36.9998Z" fill="#C3D2F4"/>
<path d="M32 18H34.6667C36.5076 18 38 19.4924 38 21.3333V23.6666C38 25.5076 36.5076 27 34.6667 27H32" stroke="#6B96F9" stroke-width="1.33333"/>
<path d="M28.6665 2C28.6665 3.10457 27.7711 4 26.6665 4H25.334C24.5975 4 24.0005 4.59727 24.0005 5.33374C24.0005 6.06994 24.5973 6.66699 25.3335 6.66699C26.0697 6.66699 26.6665 7.2638 26.6665 8V8.66699C26.6665 9.77156 25.7711 10.667 24.6665 10.667H15.667C14.7466 10.667 14.0005 9.92087 14.0005 9.00049V8.66748C14.0005 7.93101 13.4035 7.33398 12.667 7.33398C11.9305 7.33398 11.3335 6.73696 11.3335 6.00049V5.33398C11.3335 4.22941 12.2289 3.33398 13.3335 3.33398H14.3325C15.2532 3.33398 15.9995 2.58765 15.9995 1.66699C15.9995 0.746338 16.7458 0 17.6665 0H26.6665C27.7711 0 28.6665 0.895431 28.6665 2Z" fill="#C3D2F4"/>
<rect opacity="0.9" y="35" width="37.3332" height="2.66666" rx="1.33333" fill="#C3D2F4"/>
</svg>
