<svg width="24" height="24" viewBox="0 0 24 24" fill="none" xmlns="http://www.w3.org/2000/svg">
<g clip-path="url(#clip0_1696_3413)">
<path d="M18.1511 6.88375C17.9733 6.3675 17.4756 6 16.8889 6H7.11111C6.52444 6 6.03556 6.3675 5.84889 6.88375L4 12.125V19.125C4 19.6062 4.4 20 4.88889 20H5.77778C6.26667 20 6.66667 19.6062 6.66667 19.125V18.25H17.3333V19.125C17.3333 19.6062 17.7333 20 18.2222 20H19.1111C19.6 20 20 19.6062 20 19.125V12.125L18.1511 6.88375ZM7.11111 15.625C6.37333 15.625 5.77778 15.0387 5.77778 14.3125C5.77778 13.5862 6.37333 13 7.11111 13C7.84889 13 8.44444 13.5862 8.44444 14.3125C8.44444 15.0387 7.84889 15.625 7.11111 15.625ZM16.8889 15.625C16.1511 15.625 15.5556 15.0387 15.5556 14.3125C15.5556 13.5862 16.1511 13 16.8889 13C17.6267 13 18.2222 13.5862 18.2222 14.3125C18.2222 15.0387 17.6267 15.625 16.8889 15.625ZM5.77778 11.25L7.11111 7.3125H16.8889L18.2222 11.25H5.77778Z" fill="#9296A1"/>
</g>
<defs>
<clipPath id="clip0_1696_3413">
<rect width="24" height="24" fill="white"/>
</clipPath>
</defs>
</svg>
