<svg width="24" height="24" viewBox="0 0 24 24" fill="none" xmlns="http://www.w3.org/2000/svg">
<path d="M19 3C20.1046 3 21 3.89543 21 5V13C21 14.1046 20.1046 15 19 15H14.7832C14.7686 15.1408 14.7241 15.2828 14.6426 15.417L12.8545 18.3594C12.465 18.9999 11.5351 18.9998 11.1455 18.3594L9.35742 15.417C9.27588 15.2828 9.23138 15.1408 9.2168 15H5C3.89543 15 3 14.1046 3 13V5C3 3.89543 3.89543 3 5 3H19Z" fill="white"/>
<circle cx="7.2" cy="8.99981" r="1.2" fill="#6B96F9"/>
<circle cx="11.9998" cy="8.99981" r="1.2" fill="#6B96F9"/>
<circle cx="16.7996" cy="8.99981" r="1.2" fill="#6B96F9"/>
</svg>
