<svg width="34" height="34" viewBox="0 0 34 34" fill="none" xmlns="http://www.w3.org/2000/svg">
<path d="M26.6431 6.32904C28.1713 6.32904 29.4106 7.5684 29.4106 9.09662V21.3242C29.4106 22.8523 28.1712 24.0908 26.6431 24.0908H20.2671C20.2376 24.2501 20.1816 24.4097 20.0894 24.5615L17.271 29.1992C16.7322 30.0857 15.4447 30.0856 14.9058 29.1992L12.0874 24.5615C11.9951 24.4097 11.9392 24.2501 11.9097 24.0908H5.53467C4.0065 24.0908 2.76717 22.8523 2.76709 21.3242V9.09662C2.76709 7.56839 4.00644 6.32904 5.53467 6.32904H26.6431Z" fill="#6B96F9"/>
<rect x="25.6155" y="11.2308" width="2.84615" height="18.9744" rx="1.42308" transform="rotate(90 25.6155 11.2308)" fill="white"/>
<rect x="18.9744" y="15.9744" width="2.84615" height="12.3333" rx="1.42308" transform="rotate(90 18.9744 15.9744)" fill="#D3DFFD"/>
</svg>
