<svg width="38" height="37" viewBox="0 0 38 37" fill="none" xmlns="http://www.w3.org/2000/svg">
<g opacity="0.5">
<path d="M31.3867 5.53418C32.9149 5.53418 34.1543 6.77353 34.1543 8.30176V20.5293C34.1542 22.0575 32.9149 23.2959 31.3867 23.2959H10.2783C8.75015 23.2959 7.51083 22.0574 7.51074 20.5293V8.30176C7.51074 6.77353 8.7501 5.53418 10.2783 5.53418H31.3867Z" fill="#6B96F9"/>
</g>
<path d="M26.6431 9.32904C28.1713 9.32904 29.4106 10.5684 29.4106 12.0966V24.3242C29.4106 25.8523 28.1712 27.0908 26.6431 27.0908H20.2671C20.2376 27.2501 20.1816 27.4097 20.0894 27.5615L17.271 32.1992C16.7322 33.0857 15.4447 33.0856 14.9058 32.1992L12.0874 27.5615C11.9951 27.4097 11.9392 27.2501 11.9097 27.0908H5.53467C4.0065 27.0908 2.76717 25.8523 2.76709 24.3242V12.0966C2.76709 10.5684 4.00644 9.32904 5.53467 9.32904H26.6431Z" fill="#6B96F9"/>
<rect x="25.6155" y="14.2308" width="2.84615" height="18.9744" rx="1.42308" transform="rotate(90 25.6155 14.2308)" fill="white"/>
<rect x="18.9744" y="18.9744" width="2.84615" height="12.3333" rx="1.42308" transform="rotate(90 18.9744 18.9744)" fill="#D3DFFD"/>
</svg>
