<svg width="18" height="18" viewBox="0 0 18 18" fill="none" xmlns="http://www.w3.org/2000/svg">
<path d="M9 0C13.9706 0 18 4.02944 18 9C18 13.9706 13.9706 18 9 18C4.02944 18 0 13.9706 0 9C0 4.02944 4.02944 0 9 0ZM13.7148 5.45508C13.414 5.17083 12.9398 5.18385 12.6553 5.48438L7.52539 10.9082L5.34473 8.60254L5.28906 8.5498C5.00129 8.30158 4.56625 8.30647 4.28418 8.57324C4.00228 8.84008 3.97321 9.27412 4.20508 9.5752L4.25488 9.63379L6.98047 12.5156L7.52539 13.0918L8.07031 12.5156L13.7451 6.51562C14.0297 6.21468 14.0158 5.73968 13.7148 5.45508Z" fill="#6B96F9"/>
</svg>
