<svg width="394" height="419" viewBox="0 0 394 419" fill="none" xmlns="http://www.w3.org/2000/svg">
<g opacity="0.1" filter="url(#filter0_f_2004_3361)">
<circle cx="189.5" cy="209.5" r="166.5" fill="#6B96F9"/>
</g>
<g opacity="0.1" filter="url(#filter1_f_2004_3361)">
<circle cx="189.5" cy="209.5" r="66.5" fill="#6B96F9"/>
</g>
<path d="M270.351 212.095L264.469 212.366L265.011 224.131L270.893 223.86L270.351 212.095ZM297.88 208.318C299.7 205.623 298.991 201.962 296.296 200.142C293.6 198.322 289.94 199.031 288.12 201.726L297.88 208.318ZM270.622 217.978L270.893 223.86C276.798 223.588 289.876 220.171 297.88 208.318L293 205.022L288.12 201.726C282.826 209.566 273.824 211.935 270.351 212.095L270.622 217.978Z" fill="#FF5757"/>
<path d="M103.625 215.627L109.508 215.874L109.016 227.641L103.132 227.395L103.625 215.627ZM76.2733 213.245C74.3338 210.634 74.8781 206.946 77.4888 205.006C80.0996 203.067 83.7883 203.611 85.7278 206.222L76.2733 213.245ZM103.378 221.511L103.132 227.395C97.4189 227.156 84.3609 224.132 76.2733 213.245L81.0005 209.733L85.7278 206.222C90.9389 213.237 99.9601 215.474 103.625 215.627L103.378 221.511Z" fill="#6B96F9"/>
<rect width="12.2577" height="34.9913" transform="matrix(-1 0 0 1 254.337 245.043)" fill="#BA3232"/>
<rect width="12.2577" height="34.9913" transform="matrix(-1 0 0 1 235.949 245.043)" fill="#BA3232"/>
<path d="M271.191 280.034C271.191 274.398 266.622 269.828 260.985 269.828H245.143V280.034H271.191Z" fill="#BA3232"/>
<path d="M232.886 269.828H217.044C211.408 269.828 206.838 274.398 206.838 280.034H232.886V269.828Z" fill="#BA3232"/>
<path d="M236.716 159.023C215.983 159.023 199.176 171.987 199.176 187.98C199.176 194.915 202.338 201.279 207.608 206.265C208.924 207.51 208.924 209.678 207.608 210.923C202.338 215.908 199.176 222.272 199.176 229.207C199.176 245.2 215.983 258.165 236.716 258.165C256.798 258.165 273.196 246.001 274.205 230.703C274.206 230.69 274.217 230.68 274.23 230.68C274.244 230.68 274.255 230.669 274.255 230.655V187.493C274.255 187.491 274.253 187.489 274.251 187.489C274.249 187.489 274.247 187.487 274.247 187.485C273.904 171.721 257.234 159.023 236.716 159.023Z" fill="url(#paint0_radial_2004_3361)"/>
<g filter="url(#filter2_f_2004_3361)">
<ellipse cx="10.7255" cy="10.2058" rx="10.7255" ry="10.2058" transform="matrix(-1 0 0 1 258.933 195.087)" fill="#FFC4C4" fill-opacity="0.5"/>
</g>
<g filter="url(#filter3_d_2004_3361)">
<path d="M245.456 146.832C234.034 144.954 222.772 151.164 216.253 161.7L267.722 170.163C265.297 158.156 256.878 148.71 245.456 146.832Z" fill="url(#paint1_linear_2004_3361)"/>
<rect width="77.2424" height="4.4184" transform="matrix(-0.986753 -0.162232 -0.178659 0.983911 271.075 168.952)" fill="#3A62B4"/>
</g>
<rect width="4.59664" height="8.74782" rx="1.37051" transform="matrix(-1 0 0 1 231.353 190.714)" fill="#212328"/>
<rect width="4.59664" height="8.74782" rx="1.37051" transform="matrix(-1 0 0 1 220.627 190.714)" fill="#212328"/>
<path d="M240.546 208.209C240.546 210.396 239.013 214.916 232.885 215.499" stroke="#212328" stroke-width="2.05577" stroke-linecap="round"/>
<rect width="11.6563" height="34.7553" transform="matrix(-1 0 0 1 154.593 245.645)" fill="#3A5EB4"/>
<rect width="11.6563" height="34.7553" transform="matrix(-1 0 0 1 137.109 245.645)" fill="#3A5EB4"/>
<path d="M170.62 280.4C170.62 274.801 166.082 270.263 160.483 270.263H145.851V280.4H170.62Z" fill="#3A5EB4"/>
<path d="M134.195 270.263H119.562C113.963 270.263 109.425 274.801 109.425 280.4H134.195V270.263Z" fill="#3A5EB4"/>
<ellipse cx="43.711" cy="43.4441" rx="43.711" ry="43.4441" transform="matrix(-1 0 0 1 183.733 168.511)" fill="url(#paint2_radial_2004_3361)"/>
<rect width="4.3711" height="8.68882" rx="1.44814" transform="matrix(-1 0 0 1 167.707 204.715)" fill="#212328"/>
<rect width="4.3711" height="8.68882" rx="1.44814" transform="matrix(-1 0 0 1 157.507 204.715)" fill="#212328"/>
<path d="M147.307 217.748C147.307 219.92 148.764 224.409 154.592 224.989" stroke="#212328" stroke-width="2.1722" stroke-linecap="round"/>
<g filter="url(#filter4_f_2004_3361)">
<ellipse cx="10.1992" cy="10.137" rx="10.1992" ry="10.137" transform="matrix(-1 0 0 1 144.393 204.715)" fill="#FF504F" fill-opacity="0.5"/>
</g>
<path d="M291 35C281.75 42.5556 261.4 65.1333 254 95" stroke="url(#paint3_linear_2004_3361)" stroke-width="8" stroke-linecap="round"/>
<path d="M343.54 124.128C336.927 123.493 320.961 124.178 310 132" stroke="url(#paint4_linear_2004_3361)" stroke-width="8" stroke-linecap="round"/>
<path d="M73 57C84.5 62.6667 109.8 79.6 119 102" stroke="url(#paint5_linear_2004_3361)" stroke-width="8" stroke-linecap="round"/>
<path d="M65.406 146.565C59.6571 146.083 45.7274 142.783 36.0001 133.439" stroke="url(#paint6_linear_2004_3361)" stroke-width="8" stroke-linecap="round"/>
<path d="M124.004 71.9999C130.612 81.6507 143.661 104.562 143 119" stroke="url(#paint7_linear_2004_3361)" stroke-width="8" stroke-linecap="round"/>
<circle cx="236.5" cy="34.5" r="4.5" fill="#FF576B"/>
<circle cx="333.5" cy="168.5" r="4.5" fill="#FFCC00"/>
<circle cx="60.5" cy="123.5" r="4.5" fill="#6B96F9"/>
<defs>
<filter id="filter0_f_2004_3361" x="-19.1" y="0.900002" width="417.2" height="417.2" filterUnits="userSpaceOnUse" color-interpolation-filters="sRGB">
<feFlood flood-opacity="0" result="BackgroundImageFix"/>
<feBlend mode="normal" in="SourceGraphic" in2="BackgroundImageFix" result="shape"/>
<feGaussianBlur stdDeviation="21.05" result="effect1_foregroundBlur_2004_3361"/>
</filter>
<filter id="filter1_f_2004_3361" x="87.3" y="107.3" width="204.4" height="204.4" filterUnits="userSpaceOnUse" color-interpolation-filters="sRGB">
<feFlood flood-opacity="0" result="BackgroundImageFix"/>
<feBlend mode="normal" in="SourceGraphic" in2="BackgroundImageFix" result="shape"/>
<feGaussianBlur stdDeviation="17.85" result="effect1_foregroundBlur_2004_3361"/>
</filter>
<filter id="filter2_f_2004_3361" x="221.995" y="179.601" width="52.4245" height="51.3851" filterUnits="userSpaceOnUse" color-interpolation-filters="sRGB">
<feFlood flood-opacity="0" result="BackgroundImageFix"/>
<feBlend mode="normal" in="SourceGraphic" in2="BackgroundImageFix" result="shape"/>
<feGaussianBlur stdDeviation="7.74338" result="effect1_foregroundBlur_2004_3361"/>
</filter>
<filter id="filter3_d_2004_3361" x="185.432" y="137.864" width="94.277" height="44.0692" filterUnits="userSpaceOnUse" color-interpolation-filters="sRGB">
<feFlood flood-opacity="0" result="BackgroundImageFix"/>
<feColorMatrix in="SourceAlpha" type="matrix" values="0 0 0 0 0 0 0 0 0 0 0 0 0 0 0 0 0 0 127 0" result="hardAlpha"/>
<feOffset/>
<feGaussianBlur stdDeviation="4.31711"/>
<feComposite in2="hardAlpha" operator="out"/>
<feColorMatrix type="matrix" values="0 0 0 0 1 0 0 0 0 1 0 0 0 0 1 0 0 0 0.25 0"/>
<feBlend mode="normal" in2="BackgroundImageFix" result="effect1_dropShadow_2004_3361"/>
<feBlend mode="normal" in="SourceGraphic" in2="effect1_dropShadow_2004_3361" result="shape"/>
</filter>
<filter id="filter4_f_2004_3361" x="107.631" y="188.351" width="53.1263" height="53.0018" filterUnits="userSpaceOnUse" color-interpolation-filters="sRGB">
<feFlood flood-opacity="0" result="BackgroundImageFix"/>
<feBlend mode="normal" in="SourceGraphic" in2="BackgroundImageFix" result="shape"/>
<feGaussianBlur stdDeviation="8.18197" result="effect1_foregroundBlur_2004_3361"/>
</filter>
<radialGradient id="paint0_radial_2004_3361" cx="0" cy="0" r="1" gradientUnits="userSpaceOnUse" gradientTransform="translate(236.716 208.594) rotate(90) scale(49.571 37.5393)">
<stop stop-color="#FF6E6E"/>
<stop offset="1" stop-color="#FF5757"/>
</radialGradient>
<linearGradient id="paint1_linear_2004_3361" x1="241.988" y1="165.932" x2="241.769" y2="152.81" gradientUnits="userSpaceOnUse">
<stop stop-color="#A1BDFF"/>
<stop offset="1" stop-color="#6B96F9"/>
</linearGradient>
<radialGradient id="paint2_radial_2004_3361" cx="0" cy="0" r="1" gradientUnits="userSpaceOnUse" gradientTransform="translate(43.711 43.4441) rotate(90) scale(43.4441 43.711)">
<stop stop-color="#8AADFF"/>
<stop offset="1" stop-color="#6B96F9"/>
</radialGradient>
<linearGradient id="paint3_linear_2004_3361" x1="283.837" y1="35" x2="234.89" y2="101.252" gradientUnits="userSpaceOnUse">
<stop stop-color="#FF5757"/>
<stop offset="1" stop-color="#FF5757" stop-opacity="0"/>
</linearGradient>
<linearGradient id="paint4_linear_2004_3361" x1="339.812" y1="121.59" x2="305.993" y2="140.618" gradientUnits="userSpaceOnUse">
<stop stop-color="#6B96F9"/>
<stop offset="1" stop-color="#6B96F9" stop-opacity="0"/>
</linearGradient>
<linearGradient id="paint5_linear_2004_3361" x1="81.9053" y1="57" x2="110.466" y2="121.082" gradientUnits="userSpaceOnUse">
<stop stop-color="#FFCC00"/>
<stop offset="1" stop-color="#FFCC00" stop-opacity="0"/>
</linearGradient>
<linearGradient id="paint6_linear_2004_3361" x1="62.2137" y1="148.392" x2="29.046" y2="130.554" gradientUnits="userSpaceOnUse">
<stop stop-color="#AA00FF" stop-opacity="0"/>
<stop offset="1" stop-color="#AA00FF"/>
</linearGradient>
<linearGradient id="paint7_linear_2004_3361" x1="130.582" y1="77.8234" x2="112.496" y2="110.806" gradientUnits="userSpaceOnUse">
<stop stop-color="#4BD988"/>
<stop offset="1" stop-color="#4BD988" stop-opacity="0"/>
</linearGradient>
</defs>
</svg>
