<svg width="50" height="50" viewBox="0 0 50 50" fill="none" xmlns="http://www.w3.org/2000/svg">
<path d="M17.9739 30.5221C18.6097 30.0357 19.4215 30.8475 18.9351 31.4834L10.2446 42.8456C9.99269 43.175 9.50832 43.2071 9.21509 42.9139L6.54337 40.2421C6.25014 39.9489 6.28226 39.4645 6.61165 39.2126L17.9739 30.5221Z" fill="#C3D2F4"/>
<path d="M31.4833 18.9349C30.8474 19.4213 30.0357 18.6096 30.522 17.9737L39.2125 6.61147C39.4645 6.28208 39.9488 6.24995 40.2421 6.54318L42.9138 9.2149C43.207 9.50813 43.1749 9.99251 42.8455 10.2444L31.4833 18.9349Z" fill="#C3D2F4"/>
<rect x="10.6675" y="32.4866" width="30.8574" height="8.91436" rx="0.68572" transform="rotate(-45 10.6675 32.4866)" fill="#6B96F9"/>
<rect x="12.607" y="30.5469" width="2.05716" height="8.91436" rx="0.68572" transform="rotate(-45 12.607 30.5469)" fill="#C3D2F4"/>
<rect x="29.0928" y="14.061" width="2.05716" height="8.91436" rx="0.68572" transform="rotate(-45 29.0928 14.061)" fill="#C3D2F4"/>
<path d="M36.2862 21.9429C36.4444 21.9429 36.6019 21.9463 36.7589 21.9517C37.891 25.1428 40.9354 27.4291 44.5147 27.4292C44.5192 27.4292 44.5239 27.4282 44.5284 27.4282C44.7032 29.7299 46.6253 31.5435 48.9717 31.5435C49.1047 31.5435 49.2362 31.5353 49.3663 31.5239C49.778 32.8283 50.0001 34.2173 50.0001 35.6577C49.9998 43.2316 43.8601 49.3713 36.2862 49.3716C28.7121 49.3716 22.5716 43.2318 22.5714 35.6577C22.5714 28.0835 28.7119 21.9429 36.2862 21.9429Z" fill="#917669"/>
<circle cx="31.1436" cy="31.2001" r="1.7143" fill="#432D22"/>
<circle cx="35.2572" cy="29.8289" r="1.02858" fill="#432D22"/>
<circle cx="33.2002" cy="41.4863" r="1.7143" fill="#432D22"/>
<circle cx="42.8003" cy="36.0004" r="1.7143" fill="#432D22"/>
</svg>
