<svg width="36" height="41" viewBox="0 0 36 41" fill="none" xmlns="http://www.w3.org/2000/svg">
<path d="M10.4692 1.36572L19.5729 6.8279" stroke="#917669" stroke-width="0.910363"/>
<path d="M13.459 13.5986C14.0442 13.5986 14.5194 14.073 14.5195 14.6582V18.1562C14.5193 18.7414 14.0442 19.2158 13.459 19.2158H10.0684V24.6611H9.1582V27.3926H8.24805V24.6611H7.33691V19.2158H4.66309C4.07788 19.2158 3.60371 18.7414 3.60352 18.1562V14.6582C3.60365 14.073 4.07785 13.5986 4.66309 13.5986H13.459Z" fill="#432D22"/>
<rect x="8.05469" width="2.01367" height="8.05468" fill="#6B96F9"/>
<path d="M33.3847 10.8428C34.5554 10.8428 35.5044 11.7918 35.5044 12.9624L35.5044 16.8838C35.5044 18.0544 34.5554 19.0034 33.3847 19.0034L33.0668 19.0034L33.0668 10.8428L33.3847 10.8428Z" fill="#432D22"/>
<rect x="33.7026" y="9.99487" width="9.7504" height="2.4376" rx="1.2188" transform="rotate(90 33.7026 9.99487)" fill="#6B96F9"/>
<rect x="19.1177" y="6.37256" width="1.82073" height="1.82073" fill="#6B96F9"/>
<rect x="7.3125" y="1.19824" width="3.49743" height="5.72306" fill="#917669"/>
<rect x="6.88916" y="6.28564" width="4.34529" height="0.635895" fill="#432D22"/>
<rect x="6.88916" y="0.880371" width="4.34529" height="0.635895" fill="#432D22"/>
<path d="M29.8877 7.87549C31.5885 7.87572 32.9773 9.21141 33.0625 10.8911C33.0653 10.9454 33.0664 11.0002 33.0664 11.0552V38.5044C33.0664 39.6749 32.1177 40.6243 30.9473 40.6245H25.6475C25.6367 40.6245 25.626 40.6236 25.6152 40.6235H2.12012C0.949466 40.6235 0 39.6741 0 38.5034V29.2847C0 28.114 0.949466 27.1646 2.12012 27.1646H20.3477C21.5183 27.1646 22.4678 26.2151 22.4678 25.0444V18.5249C22.4676 17.4061 21.598 16.48 20.4814 16.4097L3.89453 15.3667C2.77798 15.2963 1.90836 14.3702 1.9082 13.2515V9.99561C1.9082 8.82495 2.85767 7.87549 4.02832 7.87549H29.8877Z" fill="#6B96F9"/>
<rect x="25.4902" y="18.207" width="4.55182" height="13.6554" rx="2.27591" fill="#C3D2F4"/>
</svg>
