<svg width="57" height="44" viewBox="0 0 57 44" fill="none" xmlns="http://www.w3.org/2000/svg">
<path d="M56.0551 4.4793C56.3026 4.88427 56.175 5.41321 55.77 5.66072L38.1717 16.4166C37.7667 16.6641 37.2378 16.5365 36.9902 16.1315L34.7494 12.4652C34.5019 12.0602 34.6296 11.5313 35.0345 11.2838L52.6329 0.527871C53.0378 0.28036 53.5668 0.408004 53.8143 0.812971L56.0551 4.4793ZM51.4819 3.24569C50.8242 3.64797 50.5915 4.46653 50.9626 5.07385C51.3338 5.68118 52.1684 5.84737 52.8264 5.44548C53.4844 5.04328 53.7169 4.22478 53.3457 3.61732C52.9744 3.00994 52.1399 2.8435 51.4819 3.24569Z" fill="#432D22"/>
<rect x="30.4717" y="12.0581" width="5.15622" height="9.45307" rx="2.57811" transform="rotate(-31.4328 30.4717 12.0581)" fill="#432D22"/>
<circle cx="21.8563" cy="21.8561" r="15.8983" transform="rotate(-31.4328 21.8563 21.8561)" fill="#C3D2F4"/>
<circle cx="21.8562" cy="21.856" r="14.1796" transform="rotate(-31.4328 21.8562 21.856)" fill="#6B96F9"/>
<path d="M14.1977 22.5085C15.11 18.7279 17.1848 15.3112 18.1081 14.0755C20.1016 10.7453 28.1295 13.9935 26.541 17.9859C24.9524 21.9783 30.3298 21.7132 30.5949 27.0906C30.86 32.468 24.4233 29.3519 18.6793 29.841C12.9353 30.3302 13.0573 27.2341 14.1977 22.5085Z" fill="white"/>
<circle cx="21.7137" cy="22.4469" r="2.57811" transform="rotate(-31.4328 21.7137 22.4469)" fill="#FFCC00"/>
</svg>
