<svg width="32" height="31" viewBox="0 0 32 31" fill="none" xmlns="http://www.w3.org/2000/svg">
<path d="M15.0444 1.00262C15.4279 0.198847 16.5721 0.198847 16.9556 1.00262L20.9368 9.34582C21.0911 9.6693 21.3987 9.89273 21.754 9.93957L30.9191 11.1477C31.8021 11.2641 32.1556 12.3522 31.5097 12.9654L24.8051 19.3299C24.5452 19.5766 24.4277 19.9382 24.493 20.2906L26.1761 29.3805C26.3383 30.2562 25.4127 30.9287 24.6299 30.5038L16.5051 26.0941C16.1901 25.9232 15.8099 25.9232 15.4949 26.0941L7.37008 30.5038C6.58734 30.9287 5.66172 30.2562 5.82388 29.3805L7.50705 20.2906C7.57231 19.9382 7.45484 19.5766 7.19489 19.3299L0.490293 12.9654C-0.155622 12.3522 0.197931 11.2641 1.08089 11.1477L10.246 9.93957C10.6013 9.89273 10.9089 9.6693 11.0632 9.34582L15.0444 1.00262Z" fill="#DCE1E9"/>
</svg>
