<svg width="40" height="39" viewBox="0 0 40 39" fill="none" xmlns="http://www.w3.org/2000/svg">
<path d="M13 28V38" stroke="#432D22" stroke-linecap="round"/>
<path d="M13.043 29.4644L20.114 36.5354" stroke="#432D22" stroke-linecap="round"/>
<path d="M12.6138 29.4644L5.5427 36.5354" stroke="#432D22" stroke-linecap="round"/>
<path d="M22.5 22.366C21.8333 21.9811 21.8333 21.0189 22.5 20.634L33.75 14.1388C34.4167 13.7539 35.25 14.235 35.25 15.0048L35.25 27.9952C35.25 28.765 34.4167 29.2461 33.75 28.8612L22.5 22.366Z" fill="#C3D2F4"/>
<circle cx="19.5" cy="6.5" r="6.5" fill="#C3D2F4"/>
<rect y="13" width="26" height="18" rx="3" fill="#6B96F9"/>
<circle cx="6.5" cy="6.5" r="6.5" fill="#C3D2F4"/>
<circle cx="6.5" cy="6.5" r="1.5" fill="#6B96F9"/>
<circle cx="19.5" cy="6.5" r="1.5" fill="#6B96F9"/>
<rect x="14" y="25" width="9" height="4" rx="2" fill="#432D22"/>
</svg>
