<svg width="13" height="13" viewBox="0 0 13 13" fill="none" xmlns="http://www.w3.org/2000/svg">
<path d="M2.00378 10.4C2.4276 10.4 2.78754 10.1136 3.0615 9.79023C3.41919 9.36801 3.9533 9.1 4.55 9.1C5.14669 9.1 5.6808 9.368 6.0385 9.79021C6.31247 10.1136 6.67242 10.4 7.09624 10.4H12.35C12.709 10.4 13 10.691 13 11.05C13 11.409 12.709 11.7 12.35 11.7H7.09624C6.67241 11.7 6.31247 11.9864 6.0385 12.3098C5.6808 12.732 5.14669 13 4.55 13C3.9533 13 3.41919 12.732 3.0615 12.3098C2.78754 11.9864 2.4276 11.7 2.00378 11.7H0.65C0.291015 11.7 0 11.409 0 11.05C0 10.691 0.291015 10.4 0.65 10.4H2.00378ZM5.90376 5.85C6.32759 5.85 6.68753 5.56359 6.9615 5.24021C7.3192 4.81801 7.85331 4.55 8.45 4.55C9.04669 4.55 9.5808 4.81801 9.9385 5.24021C10.2125 5.56359 10.5724 5.85 10.9962 5.85H12.35C12.709 5.85 13 6.14101 13 6.5C13 6.85898 12.709 7.15 12.35 7.15H10.9962C10.5724 7.15 10.2125 7.43641 9.9385 7.75979C9.5808 8.18199 9.04669 8.45 8.45 8.45C7.85331 8.45 7.3192 8.18199 6.9615 7.75979C6.68753 7.43641 6.32758 7.15 5.90376 7.15H0.649999C0.291014 7.15 0 6.85898 0 6.5C0 6.14101 0.291015 5.85 0.65 5.85H5.90376ZM2.00378 1.3C2.4276 1.3 2.78754 1.0136 3.0615 0.690228C3.41919 0.268014 3.9533 0 4.55 0C5.14669 0 5.6808 0.268008 6.0385 0.690213C6.31246 1.01359 6.67241 1.3 7.09624 1.3H12.35C12.709 1.3 13 1.59101 13 1.95C13 2.30898 12.709 2.6 12.35 2.6H7.09624C6.67241 2.6 6.31246 2.88641 6.0385 3.20979C5.6808 3.63199 5.14669 3.9 4.55 3.9C3.9533 3.9 3.41919 3.63199 3.0615 3.20977C2.78754 2.8864 2.4276 2.6 2.00378 2.6H0.65C0.291015 2.6 0 2.30898 0 1.95C0 1.59101 0.291015 1.3 0.65 1.3H2.00378ZM4.55 2.6C4.90898 2.6 5.2 2.30898 5.2 1.95C5.2 1.59102 4.90898 1.3 4.55 1.3C4.19102 1.3 3.9 1.59102 3.9 1.95C3.9 2.30898 4.19102 2.6 4.55 2.6ZM8.45 7.15C8.80899 7.15 9.1 6.85899 9.1 6.5C9.1 6.141 8.80899 5.85 8.45 5.85C8.091 5.85 7.8 6.141 7.8 6.5C7.8 6.85899 8.091 7.15 8.45 7.15ZM4.55 11.7C4.90898 11.7 5.2 11.409 5.2 11.05C5.2 10.691 4.90898 10.4 4.55 10.4C4.19102 10.4 3.9 10.691 3.9 11.05C3.9 11.409 4.19102 11.7 4.55 11.7Z" fill="#9296A1"/>
</svg>
