<svg width="42" height="29" viewBox="0 0 42 29" fill="none" xmlns="http://www.w3.org/2000/svg">
<path d="M7.98926 12.1084C12.1203 12.1085 15.5192 15.8712 15.9356 20.6963C15.9831 21.2466 15.5308 21.6953 14.9785 21.6953H1.00003C0.447733 21.6953 -0.00461254 21.2466 0.0428809 20.6963C0.459351 15.8712 3.8582 12.1084 7.98926 12.1084Z" fill="#6B96F9"/>
<circle cx="8" cy="6" r="6" fill="#6B96F9"/>
<path d="M20.7715 19.4131C24.9026 19.4131 28.3016 23.1758 28.7179 28.0011C28.7654 28.5513 28.313 29 27.7607 29H13.7822C13.2299 29 12.7776 28.5513 12.8251 28.0011C13.2414 23.1759 16.6404 19.4132 20.7715 19.4131Z" fill="#6B96F9"/>
<path d="M34.0107 12.1084C38.1418 12.1084 41.5406 15.8712 41.9571 20.6963C42.0046 21.2466 41.5523 21.6953 41 21.6953H27.0215C26.4692 21.6953 26.0169 21.2466 26.0644 20.6963C26.4808 15.8712 29.8797 12.1085 34.0107 12.1084Z" fill="#6B96F9"/>
<circle cx="21" cy="13" r="6" fill="#6B96F9"/>
<circle cx="34" cy="6" r="6" fill="#6B96F9"/>
<circle cx="6" cy="5" r="1" fill="#432D22"/>
<circle cx="19" cy="12" r="1" fill="#432D22"/>
<circle cx="32" cy="5" r="1" fill="#432D22"/>
<circle cx="10" cy="5" r="1" fill="#432D22"/>
<circle cx="23" cy="12" r="1" fill="#432D22"/>
<circle cx="36" cy="5" r="1" fill="#432D22"/>
</svg>
