<svg width="77" height="115" viewBox="0 0 77 115" fill="none" xmlns="http://www.w3.org/2000/svg">
<rect width="9.78322" height="27.9275" transform="matrix(-1 0 0 1 56.1028 86.3361)" fill="#BA3232"/>
<rect width="9.78322" height="27.9275" transform="matrix(-1 0 0 1 41.4271 86.3361)" fill="#BA3232"/>
<path d="M69.5546 114.264C69.5546 109.765 65.9078 106.118 61.4091 106.118H48.7653V114.264H69.5546Z" fill="#BA3232"/>
<path d="M38.9822 106.118H26.3384C21.8397 106.118 18.1929 109.765 18.1929 114.264H38.9822V106.118Z" fill="#BA3232"/>
<path d="M42.039 17.681C25.4919 17.681 12.0779 28.0284 12.0779 40.7926C12.0779 46.2691 14.5481 51.2998 18.6751 55.2598C19.7848 56.3247 19.7848 58.1652 18.6751 59.2301C14.5481 63.1901 12.0779 68.2207 12.0779 73.6973C12.0779 86.4615 25.4919 96.8089 42.039 96.8089C58.067 96.8089 71.155 87.1005 71.9604 74.8911C71.9611 74.8807 71.9698 74.8725 71.9803 74.8725C71.9912 74.8725 72.0001 74.8636 72.0001 74.8526V40.4041C72.0001 40.4023 71.9987 40.4009 71.9969 40.4009C71.9951 40.4009 71.9937 40.3995 71.9936 40.3977C71.7203 27.8157 58.4151 17.681 42.039 17.681Z" fill="url(#paint0_radial_2004_3364)"/>
<g filter="url(#filter0_f_2004_3364)">
<ellipse cx="8.56032" cy="8.14552" rx="8.56032" ry="8.14552" transform="matrix(-1 0 0 1 59.771 46.4653)" fill="#FFC4C4" fill-opacity="0.5"/>
</g>
<g filter="url(#filter1_d_2004_3364)">
<path d="M49.0148 7.95083C39.8985 6.4521 30.9097 11.4085 25.7071 19.8178L66.7865 26.5717C64.8509 16.9888 58.1311 9.44965 49.0148 7.95083Z" fill="url(#paint1_linear_2004_3364)"/>
<rect width="61.6492" height="3.52644" transform="matrix(-0.986753 -0.162232 -0.178659 0.983911 69.4624 25.6057)" fill="#3A62B4"/>
</g>
<rect width="3.66871" height="6.98188" rx="1.16365" transform="matrix(-1 0 0 1 37.7589 42.9744)" fill="#212328"/>
<rect width="3.66871" height="6.98188" rx="1.16365" transform="matrix(-1 0 0 1 29.1986 42.9744)" fill="#212328"/>
<path d="M45.0959 56.9382C45.0959 58.6836 43.873 62.2909 38.9814 62.7564" stroke="#212328" stroke-width="1.74547" stroke-linecap="round"/>
<defs>
<filter id="filter0_f_2004_3364" x="29.5012" y="33.3161" width="43.419" height="42.5895" filterUnits="userSpaceOnUse" color-interpolation-filters="sRGB">
<feFlood flood-opacity="0" result="BackgroundImageFix"/>
<feBlend mode="normal" in="SourceGraphic" in2="BackgroundImageFix" result="shape"/>
<feGaussianBlur stdDeviation="6.5746" result="effect1_foregroundBlur_2004_3364"/>
</filter>
<filter id="filter1_d_2004_3364" x="0.668875" y="0.353964" width="76.1245" height="36.0524" filterUnits="userSpaceOnUse" color-interpolation-filters="sRGB">
<feFlood flood-opacity="0" result="BackgroundImageFix"/>
<feColorMatrix in="SourceAlpha" type="matrix" values="0 0 0 0 0 0 0 0 0 0 0 0 0 0 0 0 0 0 127 0" result="hardAlpha"/>
<feOffset/>
<feGaussianBlur stdDeviation="3.66549"/>
<feComposite in2="hardAlpha" operator="out"/>
<feColorMatrix type="matrix" values="0 0 0 0 1 0 0 0 0 1 0 0 0 0 1 0 0 0 0.25 0"/>
<feBlend mode="normal" in2="BackgroundImageFix" result="effect1_dropShadow_2004_3364"/>
<feBlend mode="normal" in="SourceGraphic" in2="effect1_dropShadow_2004_3364" result="shape"/>
</filter>
<radialGradient id="paint0_radial_2004_3364" cx="0" cy="0" r="1" gradientUnits="userSpaceOnUse" gradientTransform="translate(42.039 57.2449) rotate(90) scale(39.564 29.9611)">
<stop stop-color="#FF6E6E"/>
<stop offset="1" stop-color="#FF5757"/>
</radialGradient>
<linearGradient id="paint1_linear_2004_3364" x1="46.2467" y1="23.1949" x2="46.0721" y2="12.7224" gradientUnits="userSpaceOnUse">
<stop stop-color="#A1BDFF"/>
<stop offset="1" stop-color="#6B96F9"/>
</linearGradient>
</defs>
</svg>
