<svg width="24" height="24" viewBox="0 0 24 24" fill="none" xmlns="http://www.w3.org/2000/svg">
<path d="M11.5 11.5C10.6063 11.5 9.84115 11.1818 9.20469 10.5453C8.56823 9.90885 8.25 9.14375 8.25 8.25C8.25 7.35625 8.56823 6.59115 9.20469 5.95469C9.84115 5.31823 10.6063 5 11.5 5C12.3938 5 13.1589 5.31823 13.7953 5.95469C14.4318 6.59115 14.75 7.35625 14.75 8.25C14.75 9.14375 14.4318 9.90885 13.7953 10.5453C13.1589 11.1818 12.3938 11.5 11.5 11.5ZM6.625 18C6.17813 18 5.79571 17.841 5.47775 17.5231C5.15925 17.2046 5 16.8219 5 16.375V15.725C5 15.2646 5.11863 14.8413 5.35588 14.4551C5.59258 14.0694 5.90729 13.775 6.3 13.5719C7.13958 13.1521 7.99271 12.8371 8.85938 12.6269C9.72604 12.4173 10.6063 12.3125 11.5 12.3125C12.3938 12.3125 13.274 12.4173 14.1406 12.6269C15.0073 12.8371 15.8604 13.1521 16.7 13.5719C17.0927 13.775 17.4074 14.0694 17.6441 14.4551C17.8814 14.8413 18 15.2646 18 15.725V16.375C18 16.8219 17.841 17.2046 17.5231 17.5231C17.2046 17.841 16.8219 18 16.375 18H6.625Z" fill="#9296A1"/>
</svg>
