<svg width="24" height="24" viewBox="0 0 24 24" fill="none" xmlns="http://www.w3.org/2000/svg">
<path d="M20.3184 4C21.4229 4 22.3184 4.89543 22.3184 6V15.7578C22.3184 16.8624 21.4229 17.7578 20.3184 17.7578H15.2764C15.2522 17.8445 15.2154 17.9307 15.165 18.0137L12.8545 21.8154C12.4649 22.4558 11.535 22.4559 11.1455 21.8154L8.83496 18.0137C8.78456 17.9307 8.74776 17.8445 8.72363 17.7578H3.68164C2.57707 17.7578 1.68164 16.8624 1.68164 15.7578V6C1.68164 4.89543 2.57707 4 3.68164 4H20.3184Z" fill="#DCE1E9"/>
<circle cx="6.4969" cy="10.8787" r="1.37581" fill="#9296A1"/>
<circle cx="11.9998" cy="10.8787" r="1.37581" fill="#9296A1"/>
<circle cx="17.5028" cy="10.8787" r="1.37581" fill="#9296A1"/>
</svg>
