<svg width="37" height="37" viewBox="0 0 37 37" fill="none" xmlns="http://www.w3.org/2000/svg">
<rect y="15.2754" width="37" height="21.7248" rx="2.0367" fill="#432D22"/>
<rect y="15.2754" width="37" height="14.5963" rx="2.0367" fill="#917669"/>
<rect x="6.44922" y="15.2754" width="4.41285" height="21.7248" fill="#6B96F9"/>
<rect x="25.7979" y="15.2754" width="4.41285" height="21.7248" fill="#6B96F9"/>
<path d="M19.3483 0C25.3474 0 30.2107 4.86326 30.2107 10.8624V25.4587H25.7979V11.8807C25.7979 7.75634 24.9492 2.20642 18.33 2.20642C12.0501 2.20642 10.8621 7.75634 10.8621 11.8807V25.4587H6.44922V10.8624C6.44922 4.86326 11.3125 3.28061e-08 17.3116 0H19.3483Z" fill="#6B96F9"/>
<path d="M11.541 21.3857H11.542V22.4043H5.77148V22.4033H5.77051V17.6514H11.542L11.541 21.3857ZM6.78906 21.3857H10.5234V18.6699H6.78906V21.3857Z" fill="#C3D2F4"/>
<path d="M30.8906 18.6699H30.8896V21.3857H30.8906V22.4043H25.1201V22.4033H25.1191V17.6514H30.8906V18.6699ZM26.1367 21.3857H29.8711V18.6699H26.1377L26.1367 21.3857Z" fill="#C3D2F4"/>
</svg>
