<svg width="15" height="15" viewBox="0 0 15 15" fill="none" xmlns="http://www.w3.org/2000/svg">
<path d="M7.5 0C11.6421 0 15 3.35786 15 7.5C15 11.6421 11.6421 15 7.5 15C3.35786 15 0 11.6421 0 7.5C0 3.35786 3.35786 0 7.5 0ZM3.34473 4.2627L3.99609 7.15625H3.16797V8.10547H4.20996L4.86133 11H6.37793L6.9834 8.10547H7.74609L8.35059 11H9.86816L10.5244 8.10547H11.5713V7.15625H10.7383L11.3945 4.2627H9.96094L9.4209 7.15625H8.64453L8.01562 4.2627H6.72266L6.09473 7.15625H5.32227L4.77734 4.2627H3.34473ZM9.23926 8.10547L9.08594 8.93359H9.03027L8.84863 8.10547H9.23926ZM5.88477 8.10547L5.70801 8.9248H5.65234L5.49902 8.10547H5.88477ZM7.39258 6.40234L7.55078 7.15625H7.17871L7.33691 6.40234H7.39258Z" fill="#6B96F9"/>
</svg>
