<svg width="24" height="24" viewBox="0 0 24 24" fill="none" xmlns="http://www.w3.org/2000/svg">
<path d="M8.53292 18C7.98063 18 7.53292 17.5523 7.53292 17V12.4786C7.53292 12.3262 7.47063 12.1804 7.3605 12.075C7.24556 11.955 7.15674 11.82 7.09404 11.67C7.03135 11.52 7 11.37 7 11.22C7 11.06 7.03135 10.9076 7.09404 10.7628C7.15674 10.6176 7.24556 10.49 7.3605 10.38L9.12326 8.68016C9.30964 8.50043 9.55848 8.4 9.8174 8.4H11.5202C11.7778 8.4 12.0255 8.30058 12.2116 8.12247L13.7381 6.66167C14.1247 6.29163 14.7342 6.29163 15.1209 6.66167L15.7147 7.23C16.1536 7.64 16.4775 8.1024 16.6865 8.6172C16.8955 9.1324 17 9.66 17 10.2C17 10.74 16.8955 11.265 16.6865 11.775C16.4775 12.285 16.1536 12.75 15.7147 13.17L14.7381 14.1047C14.5409 14.2933 14.4295 14.5543 14.4295 14.8271V17C14.4295 17.5523 13.9818 18 13.4295 18H8.53292ZM8.78683 15.8C8.78683 16.3523 9.23455 16.8 9.78683 16.8H12.1755C12.7278 16.8 13.1755 16.3523 13.1755 15.8V14.3321C13.1755 14.0593 13.287 13.7983 13.4841 13.6097L14.8213 12.33C15.1243 12.04 15.3542 11.7074 15.511 11.3322C15.6677 10.9574 15.7461 10.58 15.7461 10.2C15.7461 9.82 15.6677 9.445 15.511 9.075C15.3542 8.705 15.1243 8.375 14.8213 8.085C14.6034 7.86809 14.2522 7.86465 14.03 8.07724L12.7289 9.32247C12.5428 9.50058 12.2951 9.6 12.0375 9.6H10.0695C9.98064 9.6 9.89519 9.6343 9.83098 9.69575C9.68903 9.8316 9.68903 10.0584 9.83098 10.1943L10.6207 10.95C10.9237 11.24 11.1536 11.57 11.3103 11.94C11.4671 12.31 11.5455 12.685 11.5455 13.065C11.5455 13.445 11.4671 13.8226 11.3103 14.1978C11.2476 14.3478 11.1732 14.4909 11.0871 14.6273C10.8671 14.9756 10.3862 14.9706 10.0886 14.6858C9.59907 14.2173 8.78683 14.5643 8.78683 15.2418V15.8Z" fill="#9296A1"/>
<circle cx="11.5" cy="12.5" r="9.5" stroke="#FF5757" stroke-width="1.5"/>
<path d="M18.2173 5.78271L4.78226 19.2177" stroke="#FF5757" stroke-width="1.5" stroke-linecap="round"/>
</svg>
