<svg width="44" height="35" viewBox="0 0 44 35" fill="none" xmlns="http://www.w3.org/2000/svg">
<path d="M39 1C41.7614 1 44 3.68629 44 7C44 9.57869 42.6439 11.7765 40.7412 12.625V31C40.7412 31.5523 40.2935 32 39.7412 32H38.2959C37.7436 32 37.2959 31.5523 37.2959 31V12.6416C35.3737 11.8053 34 9.59547 34 7C34 3.68629 36.2386 1 39 1Z" fill="#9296A1"/>
<path d="M5.74121 31C5.74121 31.5523 5.2935 32 4.74121 32H3.29688C2.74459 32 2.29688 31.5523 2.29688 31V12.333C2.29688 11.7807 1.84916 11.333 1.29688 11.333H1C0.447715 11.333 0 10.8853 0 10.333V1.57422C0 1.25709 0.257087 1 0.574219 1C0.891351 1 1.14844 1.25709 1.14844 1.57422V5.74121C1.14844 6.2935 1.59615 6.74121 2.14844 6.74121H2.44434C2.99662 6.74121 3.44434 6.2935 3.44434 5.74121V1.57422C3.44434 1.25709 3.70142 1 4.01855 1C4.33569 1 4.59277 1.25709 4.59277 1.57422V5.74121C4.59277 6.2935 5.04049 6.74121 5.59277 6.74121H5.88867C6.44096 6.74121 6.88867 6.2935 6.88867 5.74121V1.57422C6.88867 1.25709 7.14576 1 7.46289 1C7.78002 1 8.03711 1.25709 8.03711 1.57422V10.333C8.03711 10.8853 7.58939 11.333 7.03711 11.333H6.74121C6.18893 11.333 5.74121 11.7807 5.74121 12.333V31Z" fill="#9296A1"/>
<circle cx="21.5" cy="17.5" r="17.5" fill="#C3D2F4"/>
<circle cx="21.5" cy="17.5" r="14.5" fill="#6B96F9"/>
<path d="M12.5604 18.0238C13.5905 13.7555 15.9329 9.89794 16.9754 8.50271C19.2261 4.74289 28.2899 8.41017 26.4964 12.9177C24.7028 17.4253 30.7741 17.126 31.0734 23.1973C31.3727 29.2685 24.1055 25.7503 17.6203 26.3026C11.1351 26.8549 11.2729 23.3593 12.5604 18.0238Z" fill="white"/>
<circle cx="21.046" cy="17.9544" r="2.91077" transform="rotate(-31.4328 21.046 17.9544)" fill="#FFCC00"/>
</svg>
