<svg width="25" height="24" viewBox="0 0 25 24" fill="none" xmlns="http://www.w3.org/2000/svg">
<g opacity="0.5">
<path d="M20.4092 3.58984C21.4002 3.59008 22.2041 4.39367 22.2041 5.38477V13.3164C22.2041 14.3075 21.4003 15.1111 20.4092 15.1113H6.7168C5.72552 15.1113 4.92187 14.3077 4.92188 13.3164V5.38477C4.92192 4.39353 5.72555 3.58984 6.7168 3.58984H20.4092Z" fill="white"/>
</g>
<path d="M17.333 6.05127C18.3243 6.05127 19.1279 6.85493 19.1279 7.84619V15.7778C19.1279 16.7691 18.3243 17.5728 17.333 17.5728H13.1982C13.1791 17.676 13.1427 17.7791 13.083 17.8774L11.2549 20.8862C10.9054 21.4613 10.0703 21.4612 9.7207 20.8862L7.89258 17.8774C7.83286 17.7791 7.79647 17.676 7.77734 17.5728H3.64062C2.64946 17.5726 1.84571 16.769 1.8457 15.7778V7.84619C1.84573 6.85502 2.64947 6.0514 3.64062 6.05127H17.333Z" fill="white"/>
<rect x="16.666" y="9.23096" width="1.84615" height="12.3077" rx="0.923076" transform="rotate(90 16.666 9.23096)" fill="#6B96F9"/>
<rect x="12.3594" y="12.3076" width="1.84615" height="7.99999" rx="0.923076" transform="rotate(90 12.3594 12.3076)" fill="#6B96F9"/>
</svg>
