<svg width="105" height="88" viewBox="0 0 105 88" fill="none" xmlns="http://www.w3.org/2000/svg">
<rect x="6" y="26.9989" width="92.9987" height="59.9992" rx="5.99992" fill="white"/>
<rect width="104.999" height="20.9997" rx="5.99992" transform="matrix(1 0 0 -1 0 20.9996)" fill="white"/>
<path d="M0 5.99976H20.9997V28.4995C20.9997 34.2984 16.2988 38.9993 10.4999 38.9993C4.70095 38.9993 0 34.2984 0 28.4994V5.99976Z" fill="#AFC5F9"/>
<path d="M20.9995 5.99976H41.9992V28.4995C41.9992 34.2984 37.2983 38.9993 31.4994 38.9993C25.7005 38.9993 20.9995 34.2984 20.9995 28.4994V5.99976Z" fill="#6B96F9"/>
<path d="M41.9985 5.99976H62.9982V28.4995C62.9982 34.2984 58.2973 38.9993 52.4984 38.9993C46.6995 38.9993 41.9985 34.2984 41.9985 28.4994V5.99976Z" fill="#AFC5F9"/>
<path d="M62.9971 5.99976H83.9968V28.4995C83.9968 34.2984 79.2958 38.9993 73.4969 38.9993C67.698 38.9993 62.9971 34.2984 62.9971 28.4994V5.99976Z" fill="#6B96F9"/>
<path d="M84.0005 5.99976H105V28.4995C105 34.2984 100.299 38.9993 94.5003 38.9993C88.7014 38.9993 84.0005 34.2984 84.0005 28.4994V5.99976Z" fill="#AFC5F9"/>
<rect width="5.83659" height="16.6613" transform="matrix(-1 0 0 1 59.645 70.884)" fill="#BA3232"/>
<rect width="5.83659" height="16.6613" transform="matrix(-1 0 0 1 50.8901 70.884)" fill="#BA3232"/>
<path d="M67.6704 87.5453C67.6704 84.8615 65.4947 82.6858 62.8109 82.6858H55.2677V87.5453H67.6704Z" fill="#BA3232"/>
<path d="M49.4307 82.6858H41.8875C39.2036 82.6858 37.0279 84.8615 37.0279 87.5453H49.4307V82.6858Z" fill="#BA3232"/>
<path d="M51.2544 29.9249C41.3825 29.9249 33.3798 36.0981 33.3798 43.7131C33.3798 46.9804 34.8535 49.9816 37.3156 52.3441C37.9777 52.9794 37.9777 54.0775 37.3156 54.7128C34.8535 57.0753 33.3798 60.0765 33.3798 63.3438C33.3798 70.9588 41.3825 77.132 51.2544 77.132C60.8165 77.132 68.6247 71.34 69.1052 64.056C69.1056 64.0498 69.1108 64.0449 69.1171 64.0449C69.1236 64.0449 69.1289 64.0396 69.1289 64.0331V43.4814C69.1289 43.4803 69.128 43.4794 69.127 43.4794C69.1259 43.4794 69.1251 43.4786 69.125 43.4775C68.962 35.9712 61.0242 29.9249 51.2544 29.9249Z" fill="url(#paint0_radial_2004_3360)"/>
<g filter="url(#filter0_f_2004_3360)">
<ellipse cx="5.10701" cy="4.85955" rx="5.10701" ry="4.85955" transform="matrix(-1 0 0 1 61.834 47.0974)" fill="#FFC4C4" fill-opacity="0.5"/>
</g>
<g filter="url(#filter1_d_2004_3360)">
<path d="M55.417 24.1204C49.978 23.2262 44.6149 26.1829 41.5112 31.2001L66.02 35.2296C64.8654 29.5122 60.8559 25.0146 55.417 24.1204Z" fill="url(#paint1_linear_2004_3360)"/>
<rect width="36.7794" height="2.10385" transform="matrix(-0.986753 -0.162232 -0.178659 0.983911 67.6152 34.6528)" fill="#3A62B4"/>
</g>
<rect width="2.18872" height="4.16533" rx="0.694222" transform="matrix(-1 0 0 1 48.7012 45.0146)" fill="#212328"/>
<rect width="2.18872" height="4.16533" rx="0.694222" transform="matrix(-1 0 0 1 43.5942 45.0146)" fill="#212328"/>
<path d="M53.0786 53.3455C53.0786 54.3868 52.349 56.5389 49.4307 56.8166" stroke="#212328" stroke-width="1.04133" stroke-linecap="round"/>
<defs>
<filter id="filter0_f_2004_3360" x="43.7754" y="39.2527" width="25.9033" height="25.4085" filterUnits="userSpaceOnUse" color-interpolation-filters="sRGB">
<feFlood flood-opacity="0" result="BackgroundImageFix"/>
<feBlend mode="normal" in="SourceGraphic" in2="BackgroundImageFix" result="shape"/>
<feGaussianBlur stdDeviation="3.92235" result="effect1_foregroundBlur_2004_3360"/>
</filter>
<filter id="filter1_d_2004_3360" x="26.5737" y="19.5881" width="45.4152" height="21.5083" filterUnits="userSpaceOnUse" color-interpolation-filters="sRGB">
<feFlood flood-opacity="0" result="BackgroundImageFix"/>
<feColorMatrix in="SourceAlpha" type="matrix" values="0 0 0 0 0 0 0 0 0 0 0 0 0 0 0 0 0 0 127 0" result="hardAlpha"/>
<feOffset/>
<feGaussianBlur stdDeviation="2.1868"/>
<feComposite in2="hardAlpha" operator="out"/>
<feColorMatrix type="matrix" values="0 0 0 0 1 0 0 0 0 1 0 0 0 0 1 0 0 0 0.25 0"/>
<feBlend mode="normal" in2="BackgroundImageFix" result="effect1_dropShadow_2004_3360"/>
<feBlend mode="normal" in="SourceGraphic" in2="effect1_dropShadow_2004_3360" result="shape"/>
</filter>
<radialGradient id="paint0_radial_2004_3360" cx="0" cy="0" r="1" gradientUnits="userSpaceOnUse" gradientTransform="translate(51.2544 53.5285) rotate(90) scale(23.6035 17.8745)">
<stop stop-color="#FF6E6E"/>
<stop offset="1" stop-color="#FF5757"/>
</radialGradient>
<linearGradient id="paint1_linear_2004_3360" x1="53.7656" y1="33.2148" x2="53.6615" y2="26.9671" gradientUnits="userSpaceOnUse">
<stop stop-color="#A1BDFF"/>
<stop offset="1" stop-color="#6B96F9"/>
</linearGradient>
</defs>
</svg>
