<svg width="125" height="112" viewBox="0 0 125 112" fill="none" xmlns="http://www.w3.org/2000/svg">
<rect x="52.1836" y="94.4115" width="5.79818" height="17.3945" fill="#C6D7FF"/>
<rect x="60.8809" y="94.4115" width="5.79818" height="17.3945" fill="#C6D7FF"/>
<path d="M44.2112 111.806C44.2112 109.004 46.4826 106.733 49.2846 106.733H56.5323V111.806H44.2112Z" fill="#C6D7FF"/>
<path d="M62.3303 106.733H69.578C72.38 106.733 74.6514 109.004 74.6514 111.806H62.3303V106.733Z" fill="#C6D7FF"/>
<circle cx="59.4311" cy="77.5507" r="21.7432" fill="url(#paint0_radial_2004_3353)"/>
<rect x="48.2673" y="66.6791" width="2.17432" height="4.34863" rx="0.724772" transform="rotate(25.6466 48.2673 66.6791)" fill="#212328"/>
<rect x="52.8411" y="68.875" width="2.17432" height="4.34863" rx="0.724772" transform="rotate(25.6466 52.8411 68.875)" fill="#212328"/>
<rect x="50.8535" width="34.0643" height="34.0643" rx="7.24772" transform="rotate(15 50.8535 0)" fill="white"/>
<path d="M55.0323 14.9781C57.7362 11.7338 63.4559 12.0434 67.8067 15.6695C72.1051 19.2519 73.1839 26.2185 71.1534 27.8131C70.3725 28.3791 69.3874 28.4565 68.2374 27.8131C66.5152 26.8494 65.0752 25.376 64.9327 25.2047C64.7915 25.0345 63.9153 24.2402 63.2091 24.7223C62.8607 24.9303 62.3731 25.602 63.2091 26.6227C64.2542 27.8987 64.916 29.2523 63.5479 29.7135C62.9283 29.9222 62.2145 29.7526 61.5255 29.5367C60.3149 29.0475 59.1205 28.3401 58.0147 27.4186C53.6639 23.7924 52.3284 18.2224 55.0323 14.9781Z" fill="#917669"/>
<path d="M61.2772 13.6786C62.4711 14.2137 62.6372 14.7179 62.4302 15.5025C62.2534 16.6955 61.3712 16.7425 60.5273 16.5198C59.1931 16.1677 58.9306 15.4181 59.1376 14.6335C59.3447 13.8489 60.598 13.1995 61.2772 13.6786Z" fill="#432D22"/>
<path d="M59.9947 23.9366C61.1886 24.4716 61.3548 24.9759 61.1477 25.7604C60.9709 26.9534 60.0887 27.0005 59.2448 26.7778C57.9106 26.4256 57.6481 25.676 57.8552 24.8914C58.0623 24.1068 59.3156 23.4574 59.9947 23.9366Z" fill="#6B96F9"/>
<path d="M58.1076 16.1547C58.6248 17.1879 58.3864 17.7037 57.663 18.284C56.6676 19.2322 55.9658 18.8517 55.488 18.2561C54.7325 17.3142 55.0752 16.54 55.7986 15.9597C56.522 15.3794 57.9396 15.4157 58.1076 16.1547Z" fill="#6B96F9"/>
<path d="M57.5486 19.9619C58.6203 20.7214 58.671 21.3045 58.2841 22.1473C57.8339 23.4479 56.9405 23.3781 56.1474 23.0139C54.8933 22.4382 54.8024 21.5692 55.1894 20.7264C55.5763 19.8837 56.9789 19.3357 57.5486 19.9619Z" fill="#FFCC00"/>
<path d="M66.2226 15.9091C67.0316 16.7915 66.9623 17.3258 66.4507 18.0127C65.7926 19.1 65.0075 18.8715 64.3699 18.3966C63.3618 17.6458 63.4514 16.8467 63.963 16.1598C64.4745 15.4729 65.8363 15.2398 66.2226 15.9091Z" fill="#C3D2F4"/>
<path d="M69.6423 19.3284C70.4513 20.2108 70.382 20.7451 69.8704 21.432C69.2122 22.5193 68.4272 22.2908 67.7896 21.8159C66.7815 21.0651 66.871 20.266 67.3826 19.5791C67.8942 18.8922 69.256 18.6591 69.6423 19.3284Z" fill="#6B96F9"/>
<path d="M70.4972 24.03C71.3062 24.9124 71.237 25.4466 70.7254 26.1335C70.0672 27.2208 69.2822 26.9923 68.6446 26.5174C67.6365 25.7666 67.726 24.9676 68.2376 24.2807C68.7492 23.5938 70.111 23.3606 70.4972 24.03Z" fill="#432D22"/>
<rect width="1.5432" height="22.8757" rx="0.7716" transform="matrix(-0.732045 -0.681256 -0.681256 0.732045 70.7639 15.1003)" fill="#432D22"/>
<path fill-rule="evenodd" clip-rule="evenodd" d="M70.3011 12.8001C69.5532 13.6037 69.2949 14.6011 69.7368 15.0123C70.1718 15.417 71.1481 15.0879 71.8959 14.2843C72.715 13.4041 73.2694 11.8255 73.571 10.8922C72.6262 11.2983 71.1557 11.8816 70.3011 12.8001Z" fill="#6B96F9"/>
<path d="M70.3308 15.5658C70.57 15.3087 70.5555 14.9064 70.2985 14.6672L70.0997 14.4822C69.8426 14.243 69.4403 14.2574 69.2011 14.5145L66.975 16.9065L68.1047 17.9578L70.3308 15.5658Z" fill="#C2C7D1"/>
<rect x="100.913" y="28.2661" width="34.0643" height="34.0643" rx="7.24772" transform="rotate(45 100.913 28.2661)" fill="white"/>
<path d="M94.2201 50.8121C94.7934 50.7227 95.0291 51.5206 94.4992 51.757L88.3072 54.5195C88.0327 54.6419 87.7132 54.4946 87.628 54.2064L87.1208 52.4888C87.0357 52.2006 87.2239 51.9033 87.5208 51.857L94.2201 50.8121Z" fill="#C3D2F4"/>
<path d="M105.552 48.4926C104.978 48.582 104.743 47.784 105.273 47.5477L111.465 44.7852C111.739 44.6628 112.059 44.8101 112.144 45.0983L112.651 46.8159C112.736 47.1041 112.548 47.4014 112.251 47.4477L105.552 48.4926Z" fill="#C3D2F4"/>
<rect x="91.094" y="49.7048" width="16.8939" height="4.88046" rx="0.496991" transform="rotate(-16.4539 91.094 49.7048)" fill="#6B96F9"/>
<rect x="92.5339" y="49.2794" width="1.12626" height="4.88046" rx="0.496991" transform="rotate(-16.4539 92.5339 49.2794)" fill="#C3D2F4"/>
<rect x="104.776" y="45.6638" width="1.12626" height="4.88046" rx="0.496991" transform="rotate(-16.4539 104.776 45.6638)" fill="#C3D2F4"/>
<path d="M106.398 51.4654C106.108 53.296 106.974 55.1909 108.695 56.1272C108.698 56.1286 108.701 56.1292 108.704 56.1305C108.185 57.2833 108.633 58.6578 109.762 59.272C109.825 59.3065 109.891 59.336 109.956 59.3644C109.813 60.1 109.557 60.827 109.18 61.5203C107.198 65.1627 102.639 66.5088 98.9963 64.5272C95.3541 62.5456 94.0077 57.9869 95.989 54.3444C97.9705 50.7018 102.53 49.3549 106.172 51.3361C106.249 51.3776 106.323 51.4217 106.398 51.4654Z" fill="#917669"/>
<circle cx="101.278" cy="54.4432" r="0.93855" transform="rotate(28.5461 101.278 54.4432)" fill="#432D22"/>
<circle cx="103.615" cy="54.86" r="0.56313" transform="rotate(28.5461 103.615 54.86)" fill="#432D22"/>
<circle cx="99.5761" cy="59.9282" r="0.93855" transform="rotate(28.5461 99.5761 59.9282)" fill="#432D22"/>
<circle cx="105.628" cy="59.8014" r="0.93855" transform="rotate(28.5461 105.628 59.8014)" fill="#432D22"/>
<rect y="32.1476" width="34.0643" height="34.0643" rx="7.24772" transform="rotate(-19.0693 0 32.1476)" fill="white"/>
<path d="M14.2031 34.0865L20.4611 35.2847" stroke="#917669" stroke-width="1.08716"/>
<path d="M17.9804 39.4517C18.3786 39.3058 18.82 39.5099 18.9661 39.9079L19.4937 41.3475C19.6396 41.7458 19.4348 42.1876 19.0365 42.3336L17.5437 42.8806L19.2322 47.4882L17.6926 48.0524L16.0042 43.4448L14.8791 43.8571C14.4808 44.0029 14.0399 43.7978 13.8939 43.3996L13.3664 41.96C13.2208 41.5618 13.4249 41.1211 13.823 40.9752L17.9804 39.4517Z" fill="#432D22"/>
<rect x="12.8293" y="33.4263" width="1.1002" height="4.40079" transform="rotate(-20.1255 12.8293 33.4263)" fill="#6B96F9"/>
<path d="M27.6987 34.2866C28.3894 34.0335 29.1544 34.3882 29.4075 35.0789L30.0251 36.7643C30.2782 37.455 29.9235 38.22 29.2329 38.4731L27.6987 34.2866Z" fill="#432D22"/>
<rect x="27.8662" y="33.7319" width="5.32727" height="1.33182" rx="0.665909" transform="rotate(69.8745 27.8662 33.7319)" fill="#6B96F9"/>
<rect x="19.7026" y="34.6157" width="0.99478" height="0.99478" transform="rotate(-20.1255 19.7026 34.6157)" fill="#6B96F9"/>
<rect x="12.6741" y="34.1805" width="1.91087" height="3.12688" transform="rotate(-20.1255 12.6741 34.1805)" fill="#917669"/>
<rect x="13.4128" y="36.87" width="2.37411" height="0.347431" transform="rotate(-20.1255 13.4128 36.87)" fill="#432D22"/>
<rect x="12.397" y="34.097" width="2.37411" height="0.347431" transform="rotate(-20.1255 12.397 34.097)" fill="#432D22"/>
<path d="M24.9783 33.5572C26.0983 33.1469 27.3313 33.6606 27.842 34.7106C27.8761 34.7808 27.9069 34.8537 27.9343 34.9285L32.7692 48.1223C33.0611 48.9189 32.652 49.8012 31.8554 50.0932L17.7777 55.252C16.9813 55.5436 16.0988 55.1346 15.8069 54.3382L14.3338 50.3184C14.042 49.5219 14.4512 48.6395 15.2476 48.3475L23.8887 45.1809C24.6852 44.8889 25.0943 44.0065 24.8025 43.21L23.8288 40.5527C23.5496 39.7915 22.727 39.378 21.9497 39.6084L13.9248 41.9906C13.1477 42.2209 12.3249 41.8073 12.0457 41.0463L11.6859 40.0643C11.3941 39.2678 11.8033 38.3855 12.5997 38.0934L24.9783 33.5572Z" fill="#6B96F9"/>
<rect x="25.1968" y="39.4888" width="2.48695" height="7.46085" rx="1.24348" transform="rotate(-20.1255 25.1968 39.4888)" fill="#C3D2F4"/>
<defs>
<radialGradient id="paint0_radial_2004_3353" cx="0" cy="0" r="1" gradientUnits="userSpaceOnUse" gradientTransform="translate(59.4311 77.5507) rotate(90) scale(21.7432)">
<stop stop-color="#8AADFF"/>
<stop offset="1" stop-color="white"/>
</radialGradient>
</defs>
</svg>
