<svg width="125" height="112" viewBox="0 0 125 112" fill="none" xmlns="http://www.w3.org/2000/svg">
<rect x="52.1836" y="94.4115" width="5.79818" height="17.3945" fill="#3A5EB4"/>
<rect x="60.8809" y="94.4115" width="5.79818" height="17.3945" fill="#3A5EB4"/>
<path d="M44.2109 111.806C44.2109 109.004 46.4824 106.733 49.2843 106.733H56.5321V111.806H44.2109Z" fill="#3A5EB4"/>
<path d="M62.3306 106.733H69.5783C72.3803 106.733 74.6517 109.004 74.6517 111.806H62.3306V106.733Z" fill="#3A5EB4"/>
<circle cx="59.4311" cy="77.5507" r="21.7432" fill="url(#paint0_radial_2004_3359)"/>
<rect x="48.2676" y="66.6791" width="2.17432" height="4.34863" rx="0.724772" transform="rotate(25.6466 48.2676 66.6791)" fill="#212328"/>
<rect x="52.8413" y="68.875" width="2.17432" height="4.34863" rx="0.724772" transform="rotate(25.6466 52.8413 68.875)" fill="#212328"/>
<g filter="url(#filter0_f_2004_3359)">
<circle cx="62.3302" cy="79.0002" r="5.0734" fill="#FF504F" fill-opacity="0.5"/>
</g>
<rect x="50.8535" width="34.0643" height="34.0643" rx="7.24772" transform="rotate(15 50.8535 0)" fill="white"/>
<path d="M55.0323 14.9781C57.7362 11.7338 63.4559 12.0434 67.8067 15.6695C72.1051 19.2519 73.1839 26.2185 71.1534 27.8131C70.3725 28.3791 69.3874 28.4565 68.2374 27.8131C66.5152 26.8494 65.0752 25.376 64.9327 25.2047C64.7915 25.0345 63.9153 24.2402 63.2091 24.7223C62.8607 24.9303 62.3731 25.602 63.2091 26.6227C64.2542 27.8987 64.916 29.2523 63.5479 29.7135C62.9283 29.9222 62.2145 29.7526 61.5255 29.5367C60.3149 29.0475 59.1205 28.3401 58.0147 27.4186C53.6639 23.7924 52.3284 18.2224 55.0323 14.9781Z" fill="#917669"/>
<path d="M61.2772 13.6786C62.4711 14.2137 62.6372 14.7179 62.4302 15.5025C62.2534 16.6955 61.3712 16.7425 60.5273 16.5198C59.1931 16.1677 58.9306 15.4181 59.1376 14.6335C59.3447 13.8489 60.598 13.1995 61.2772 13.6786Z" fill="#432D22"/>
<path d="M59.995 23.9366C61.1889 24.4716 61.355 24.9759 61.1479 25.7604C60.9712 26.9534 60.0889 27.0005 59.2451 26.7778C57.9109 26.4256 57.6483 25.676 57.8554 24.8914C58.0625 24.1068 59.3158 23.4574 59.995 23.9366Z" fill="#6B96F9"/>
<path d="M58.1076 16.1547C58.6248 17.1879 58.3864 17.7037 57.663 18.284C56.6676 19.2322 55.9658 18.8517 55.488 18.2561C54.7325 17.3142 55.0752 16.54 55.7986 15.9597C56.522 15.3794 57.9396 15.4157 58.1076 16.1547Z" fill="#6B96F9"/>
<path d="M57.5486 19.9619C58.6203 20.7214 58.671 21.3045 58.2841 22.1473C57.8339 23.4479 56.9405 23.3781 56.1474 23.0139C54.8933 22.4382 54.8024 21.5692 55.1894 20.7264C55.5763 19.8837 56.9789 19.3357 57.5486 19.9619Z" fill="#FFCC00"/>
<path d="M66.2231 15.9091C67.0321 16.7915 66.9628 17.3258 66.4512 18.0127C65.7931 19.1 65.008 18.8715 64.3704 18.3966C63.3623 17.6458 63.4518 16.8467 63.9634 16.1598C64.475 15.4729 65.8368 15.2398 66.2231 15.9091Z" fill="#C3D2F4"/>
<path d="M69.6425 19.3284C70.4515 20.2108 70.3822 20.7451 69.8706 21.432C69.2125 22.5193 68.4274 22.2908 67.7898 21.8159C66.7817 21.0651 66.8713 20.266 67.3829 19.5791C67.8945 18.8922 69.2562 18.6591 69.6425 19.3284Z" fill="#6B96F9"/>
<path d="M70.4975 24.03C71.3065 24.9124 71.2372 25.4466 70.7256 26.1335C70.0675 27.2208 69.2824 26.9923 68.6448 26.5174C67.6367 25.7666 67.7263 24.9676 68.2379 24.2807C68.7495 23.5938 70.1112 23.3606 70.4975 24.03Z" fill="#432D22"/>
<rect width="1.5432" height="22.8757" rx="0.7716" transform="matrix(-0.732045 -0.681256 -0.681256 0.732045 70.7642 15.1003)" fill="#432D22"/>
<path fill-rule="evenodd" clip-rule="evenodd" d="M70.3013 12.8001C69.5534 13.6037 69.2952 14.6011 69.737 15.0123C70.172 15.417 71.1483 15.0879 71.8962 14.2843C72.7152 13.4041 73.2696 11.8255 73.5713 10.8922C72.6265 11.2983 71.156 11.8816 70.3013 12.8001Z" fill="#6B96F9"/>
<path d="M70.331 15.5658C70.5702 15.3087 70.5558 14.9064 70.2987 14.6672L70.0999 14.4822C69.8429 14.243 69.4405 14.2574 69.2013 14.5145L66.9753 16.9065L68.105 17.9578L70.331 15.5658Z" fill="#C2C7D1"/>
<rect x="100.913" y="28.2661" width="34.0643" height="34.0643" rx="7.24772" transform="rotate(45 100.913 28.2661)" fill="white"/>
<path d="M94.2196 50.8121C94.7929 50.7227 95.0286 51.5206 94.4987 51.757L88.3067 54.5195C88.0322 54.6419 87.7127 54.4946 87.6276 54.2064L87.1203 52.4888C87.0352 52.2006 87.2234 51.9033 87.5203 51.857L94.2196 50.8121Z" fill="#C3D2F4"/>
<path d="M105.551 48.4926C104.978 48.582 104.742 47.784 105.272 47.5477L111.464 44.7852C111.739 44.6628 112.058 44.8101 112.143 45.0983L112.651 46.8159C112.736 47.1041 112.548 47.4014 112.251 47.4477L105.551 48.4926Z" fill="#C3D2F4"/>
<rect x="91.0938" y="49.7048" width="16.8939" height="4.88046" rx="0.496991" transform="rotate(-16.4539 91.0938 49.7048)" fill="#6B96F9"/>
<rect x="92.5337" y="49.2794" width="1.12626" height="4.88046" rx="0.496991" transform="rotate(-16.4539 92.5337 49.2794)" fill="#C3D2F4"/>
<rect x="104.775" y="45.6638" width="1.12626" height="4.88046" rx="0.496991" transform="rotate(-16.4539 104.775 45.6638)" fill="#C3D2F4"/>
<path d="M106.397 51.4654C106.107 53.296 106.974 55.1909 108.695 56.1272C108.697 56.1286 108.701 56.1292 108.703 56.1305C108.184 57.2833 108.633 58.6578 109.761 59.272C109.825 59.3065 109.89 59.336 109.955 59.3644C109.812 60.1 109.557 60.827 109.18 61.5203C107.198 65.1627 102.638 66.5088 98.9959 64.5272C95.3536 62.5456 94.0072 57.9869 95.9885 54.3444C97.97 50.7018 102.529 49.3549 106.172 51.3361C106.248 51.3776 106.323 51.4217 106.397 51.4654Z" fill="#917669"/>
<circle cx="101.278" cy="54.4432" r="0.93855" transform="rotate(28.5461 101.278 54.4432)" fill="#432D22"/>
<circle cx="103.615" cy="54.86" r="0.56313" transform="rotate(28.5461 103.615 54.86)" fill="#432D22"/>
<circle cx="99.5761" cy="59.9282" r="0.93855" transform="rotate(28.5461 99.5761 59.9282)" fill="#432D22"/>
<circle cx="105.627" cy="59.8014" r="0.93855" transform="rotate(28.5461 105.627 59.8014)" fill="#432D22"/>
<rect y="32.1476" width="34.0643" height="34.0643" rx="7.24772" transform="rotate(-19.0693 0 32.1476)" fill="white"/>
<path d="M14.2031 34.0865L20.4611 35.2847" stroke="#917669" stroke-width="1.08716"/>
<path d="M17.9801 39.4517C18.3783 39.3058 18.8197 39.5099 18.9659 39.9079L19.4934 41.3475C19.6394 41.7458 19.4346 42.1876 19.0362 42.3336L17.5435 42.8806L19.2319 47.4882L17.6924 48.0524L16.0039 43.4448L14.8789 43.8571C14.4806 44.0029 14.0397 43.7978 13.8937 43.3996L13.3662 41.96C13.2205 41.5618 13.4247 41.1211 13.8228 40.9752L17.9801 39.4517Z" fill="#432D22"/>
<rect x="12.8296" y="33.4263" width="1.1002" height="4.40079" transform="rotate(-20.1255 12.8296 33.4263)" fill="#6B96F9"/>
<path d="M27.6987 34.2866C28.3894 34.0335 29.1544 34.3882 29.4075 35.0789L30.0251 36.7643C30.2782 37.455 29.9235 38.22 29.2329 38.4731L27.6987 34.2866Z" fill="#432D22"/>
<rect x="27.8662" y="33.7319" width="5.32727" height="1.33182" rx="0.665909" transform="rotate(69.8745 27.8662 33.7319)" fill="#6B96F9"/>
<rect x="19.7026" y="34.6157" width="0.99478" height="0.99478" transform="rotate(-20.1255 19.7026 34.6157)" fill="#6B96F9"/>
<rect x="12.6738" y="34.1805" width="1.91087" height="3.12688" transform="rotate(-20.1255 12.6738 34.1805)" fill="#917669"/>
<rect x="13.4131" y="36.87" width="2.37411" height="0.347431" transform="rotate(-20.1255 13.4131 36.87)" fill="#432D22"/>
<rect x="12.397" y="34.097" width="2.37411" height="0.347431" transform="rotate(-20.1255 12.397 34.097)" fill="#432D22"/>
<path d="M24.978 33.5572C26.0981 33.1469 27.331 33.6606 27.8418 34.7106C27.8759 34.7808 27.9067 34.8537 27.9341 34.9285L32.769 48.1223C33.0608 48.9189 32.6517 49.8012 31.8552 50.0932L17.7775 55.252C16.981 55.5436 16.0986 55.1346 15.8066 54.3382L14.3335 50.3184C14.0417 49.5219 14.451 48.6395 15.2473 48.3475L23.8885 45.1809C24.685 44.8889 25.094 44.0065 24.8023 43.21L23.8285 40.5527C23.5494 39.7915 22.7267 39.378 21.9494 39.6084L13.9246 41.9906C13.1474 42.2209 12.3246 41.8073 12.0455 41.0463L11.6856 40.0643C11.3938 39.2678 11.8031 38.3855 12.5994 38.0934L24.978 33.5572Z" fill="#6B96F9"/>
<rect x="25.1968" y="39.4888" width="2.48695" height="7.46085" rx="1.24348" transform="rotate(-20.1255 25.1968 39.4888)" fill="#C3D2F4"/>
<defs>
<filter id="filter0_f_2004_3359" x="49.0669" y="65.7368" width="26.5268" height="26.5267" filterUnits="userSpaceOnUse" color-interpolation-filters="sRGB">
<feFlood flood-opacity="0" result="BackgroundImageFix"/>
<feBlend mode="normal" in="SourceGraphic" in2="BackgroundImageFix" result="shape"/>
<feGaussianBlur stdDeviation="4.09496" result="effect1_foregroundBlur_2004_3359"/>
</filter>
<radialGradient id="paint0_radial_2004_3359" cx="0" cy="0" r="1" gradientUnits="userSpaceOnUse" gradientTransform="translate(59.4311 77.5507) rotate(90) scale(21.7432)">
<stop stop-color="#8AADFF"/>
<stop offset="1" stop-color="#6B96F9"/>
</radialGradient>
</defs>
</svg>
