<svg width="21" height="21" viewBox="0 0 21 21" fill="none" xmlns="http://www.w3.org/2000/svg">
<rect x="4" y="2" width="16" height="15" rx="2" fill="#DCE1E9"/>
<rect x="4" y="2" width="16" height="15" rx="2" stroke="#C2C7D1" stroke-linecap="round" stroke-dasharray="2 2"/>
<path d="M4.35355 0.646447C4.15829 0.451184 3.84171 0.451184 3.64645 0.646447L0.464466 3.82843C0.269204 4.02369 0.269204 4.34027 0.464466 4.53553C0.659728 4.7308 0.976311 4.7308 1.17157 4.53553L4 1.70711L6.82843 4.53553C7.02369 4.7308 7.34027 4.7308 7.53553 4.53553C7.7308 4.34027 7.7308 4.02369 7.53553 3.82843L4.35355 0.646447ZM20.3536 17.3536C20.5488 17.1583 20.5488 16.8417 20.3536 16.6464L17.1716 13.4645C16.9763 13.2692 16.6597 13.2692 16.4645 13.4645C16.2692 13.6597 16.2692 13.9763 16.4645 14.1716L19.2929 17L16.4645 19.8284C16.2692 20.0237 16.2692 20.3403 16.4645 20.5355C16.6597 20.7308 16.9763 20.7308 17.1716 20.5355L20.3536 17.3536ZM4 1H3.5V15H4H4.5V1H4ZM6 17V17.5H20V17V16.5H6V17ZM4 15H3.5C3.5 16.3807 4.61929 17.5 6 17.5V17V16.5C5.17157 16.5 4.5 15.8284 4.5 15H4Z" fill="#2A2C32"/>
</svg>
