<svg width="24" height="24" viewBox="0 0 24 24" fill="none" xmlns="http://www.w3.org/2000/svg">
<path d="M7.55556 17.3333H10.6V14.3778H12.8889V11.4222H15.1778V8.44444H16.4444C16.6963 8.44444 16.9073 8.35941 17.0773 8.18933C17.248 8.01867 17.3333 7.80741 17.3333 7.55556C17.3333 7.3037 17.248 7.09244 17.0773 6.92178C16.9073 6.7517 16.6963 6.66667 16.4444 6.66667H13.4V9.62222H11.1111V12.5778H8.82222V15.5556H7.55556C7.3037 15.5556 7.09244 15.6409 6.92178 15.8116C6.7517 15.9816 6.66667 16.1926 6.66667 16.4444C6.66667 16.6963 6.7517 16.9073 6.92178 17.0773C7.09244 17.248 7.3037 17.3333 7.55556 17.3333ZM5.77778 20C5.28889 20 4.87022 19.8261 4.52178 19.4782C4.17393 19.1298 4 18.7111 4 18.2222V5.77778C4 5.28889 4.17393 4.87022 4.52178 4.52178C4.87022 4.17393 5.28889 4 5.77778 4H18.2222C18.7111 4 19.1298 4.17393 19.4782 4.52178C19.8261 4.87022 20 5.28889 20 5.77778V18.2222C20 18.7111 19.8261 19.1298 19.4782 19.4782C19.1298 19.8261 18.7111 20 18.2222 20H5.77778Z" fill="#9296A1"/>
</svg>
