<svg width="15" height="15" viewBox="0 0 15 15" fill="none" xmlns="http://www.w3.org/2000/svg">
<path d="M7.04874 0.945682C7.22986 0.566121 7.77014 0.566122 7.95126 0.945683L9.83126 4.88553C9.90415 5.03828 10.0494 5.14379 10.2172 5.16591L14.5451 5.73642C14.9621 5.79138 15.129 6.30522 14.824 6.59476L11.658 9.60022C11.5352 9.71675 11.4797 9.88747 11.5106 10.0539L12.3054 14.3463C12.382 14.7599 11.9449 15.0774 11.5752 14.8768L7.73851 12.7944C7.58975 12.7137 7.41025 12.7137 7.26149 12.7944L3.42476 14.8768C3.05513 15.0774 2.61804 14.7599 2.69461 14.3463L3.48944 10.0539C3.52026 9.88747 3.46479 9.71675 3.34203 9.60022L0.17597 6.59476C-0.129045 6.30521 0.0379114 5.79138 0.454864 5.73642L4.78283 5.16591C4.95063 5.14379 5.09585 5.03828 5.16874 4.88553L7.04874 0.945682Z" fill="#FFCC00"/>
</svg>
