<svg width="29" height="24" viewBox="0 0 29 24" fill="none" xmlns="http://www.w3.org/2000/svg">
<rect x="1.65527" y="7.4483" width="25.6552" height="16.5517" rx="1.65517" fill="#6B96F9"/>
<rect width="28.9655" height="5.7931" rx="1.65517" transform="matrix(1 0 0 -1 0 5.79309)" fill="#6B96F9"/>
<path d="M10.7588 16.5517C10.7588 15.6376 11.4998 14.8965 12.414 14.8965H16.5519C17.466 14.8965 18.2071 15.6376 18.2071 16.5517V24H10.7588V16.5517Z" fill="#AFC5F9"/>
<path d="M0 1.65515H5.7931V7.86205C5.7931 9.46177 4.49627 10.7586 2.89655 10.7586C1.29683 10.7586 0 9.46177 0 7.86205V1.65515Z" fill="#AFC5F9"/>
<path d="M5.79321 1.65515H11.5863V7.86205C11.5863 9.46177 10.2895 10.7586 8.68976 10.7586C7.09004 10.7586 5.79321 9.46177 5.79321 7.86205V1.65515Z" fill="white"/>
<path d="M11.5862 1.65515H17.3793V7.86205C17.3793 9.46177 16.0825 10.7586 14.4827 10.7586C12.883 10.7586 11.5862 9.46177 11.5862 7.86205V1.65515Z" fill="#AFC5F9"/>
<path d="M17.3794 1.65515H23.1725V7.86205C23.1725 9.46177 21.8757 10.7586 20.2759 10.7586C18.6762 10.7586 17.3794 9.46177 17.3794 7.86205V1.65515Z" fill="white"/>
<path d="M23.1724 1.65515H28.9655V7.86205C28.9655 9.46177 27.6686 10.7586 26.0689 10.7586C24.4692 10.7586 23.1724 9.46177 23.1724 7.86205V1.65515Z" fill="#AFC5F9"/>
</svg>
