<svg width="24" height="24" viewBox="0 0 24 24" fill="none" xmlns="http://www.w3.org/2000/svg">
<g clip-path="url(#clip0_1223_917)">
<path d="M12.5 5C9.46125 5 7 5.34211 7 7.73684V14.2368C7 15.5574 8.07938 16.6316 9.40625 16.6316L8.375 17.6579V18H16.625V17.6579L15.5938 16.6316C16.9206 16.6316 18 15.5574 18 14.2368V7.73684C18 5.34211 15.5387 5 12.5 5ZM9.40625 15.2632C8.83563 15.2632 8.375 14.8047 8.375 14.2368C8.375 13.6689 8.83563 13.2105 9.40625 13.2105C9.97688 13.2105 10.4375 13.6689 10.4375 14.2368C10.4375 14.8047 9.97688 15.2632 9.40625 15.2632ZM11.8125 11.1579H8.375V7.73684H11.8125V11.1579ZM15.5938 15.2632C15.0231 15.2632 14.5625 14.8047 14.5625 14.2368C14.5625 13.6689 15.0231 13.2105 15.5938 13.2105C16.1644 13.2105 16.625 13.6689 16.625 14.2368C16.625 14.8047 16.1644 15.2632 15.5938 15.2632ZM16.625 11.1579H13.1875V7.73684H16.625V11.1579Z" fill="#9296A1"/>
</g>
<defs>
<clipPath id="clip0_1223_917">
<rect width="24" height="24" fill="white"/>
</clipPath>
</defs>
</svg>
