<svg width="16" height="14" viewBox="0 0 16 14" fill="none" xmlns="http://www.w3.org/2000/svg">
<path d="M0.769793 14C0.47097 14 0.250102 13.8704 0.107186 13.6111C-0.0357288 13.3519 -0.0357288 13.0926 0.107186 12.8333L7.3179 0.388889C7.46082 0.12963 7.68818 0 8 0C8.31181 0 8.53918 0.12963 8.68209 0.388889L15.8928 12.8333C16.0357 13.0926 16.0357 13.3519 15.8928 13.6111C15.7499 13.8704 15.529 14 15.2302 14H0.769793ZM8 5.44444C7.77913 5.44444 7.59412 5.51885 7.44497 5.66767C7.2953 5.817 7.22046 6.00185 7.22046 6.22222V8.55556C7.22046 8.77593 7.2953 8.96052 7.44497 9.10933C7.59412 9.25867 7.77913 9.33333 8 9.33333C8.22087 9.33333 8.40614 9.25867 8.55581 9.10933C8.70496 8.96052 8.77954 8.77593 8.77954 8.55556V6.22222C8.77954 6.00185 8.70496 5.817 8.55581 5.66767C8.40614 5.51885 8.22087 5.44444 8 5.44444ZM8 11.6667C8.22087 11.6667 8.40614 11.592 8.55581 11.4427C8.70496 11.2939 8.77954 11.1093 8.77954 10.8889C8.77954 10.6685 8.70496 10.4839 8.55581 10.3351C8.40614 10.1858 8.22087 10.1111 8 10.1111C7.77913 10.1111 7.59412 10.1858 7.44497 10.3351C7.2953 10.4839 7.22046 10.6685 7.22046 10.8889C7.22046 11.1093 7.2953 11.2939 7.44497 11.4427C7.59412 11.592 7.77913 11.6667 8 11.6667Z" fill="white"/>
</svg>
