<svg width="24" height="24" viewBox="0 0 24 24" fill="none" xmlns="http://www.w3.org/2000/svg">
<g clip-path="url(#clip0_1696_3403)">
<path d="M2.83413 7.81269C2.33889 8.29 2.34215 9.07068 2.7976 9.58609C3.3397 10.1996 4.29401 10.1922 4.90868 9.65141C9.06896 5.99137 14.9305 5.99124 19.0909 9.65105C19.7058 10.192 20.6605 10.1994 21.2028 9.58567C21.6581 9.0704 21.6617 8.28999 21.1669 7.81247C15.8998 2.7291 8.10853 2.72918 2.83413 7.81269ZM10.695 15.8906C9.76005 16.2711 9.77461 17.4816 10.443 18.238L10.5013 18.304C11.2974 19.2049 12.7026 19.2049 13.4987 18.304L13.5605 18.234C14.2274 17.4793 14.2438 16.2716 13.3114 15.891C12.4686 15.5469 11.5397 15.5468 10.695 15.8906ZM6.49014 11.9482C5.97282 12.4016 5.97865 13.1859 6.43417 13.7014C6.97616 14.3148 7.92896 14.299 8.59735 13.8266C10.6721 12.3601 13.3271 12.3599 15.4019 13.826C16.0708 14.2987 17.0241 14.3145 17.5664 13.7008C18.0217 13.1855 18.0281 12.4016 17.5114 11.9478C14.2809 9.11099 9.72704 9.1111 6.49014 11.9482Z" fill="#9296A1"/>
</g>
<defs>
<clipPath id="clip0_1696_3403">
<rect width="24" height="24" fill="white"/>
</clipPath>
</defs>
</svg>
