<svg width="20" height="31" viewBox="0 0 20 31" fill="none" xmlns="http://www.w3.org/2000/svg">
<ellipse cx="10.2012" cy="27.6265" rx="7.65045" ry="2.97518" fill="#AFC5F9"/>
<path d="M10.043 0C15.4974 -4.76822e-07 19.9998 4.4583 20 9.85938C20 15.4072 14.5929 22.3883 10.7783 26.8415C10.3954 27.2886 9.70233 27.2791 9.32651 26.826C5.50175 22.2148 5.06976e-07 15.6585 0 9.85938C0.000241181 4.45833 4.50211 4.09532e-05 10.043 0Z" fill="#6B96F9"/>
<path d="M9.77103 4.30103C9.94352 3.93955 10.4581 3.93955 10.6306 4.30104L12.0481 7.27174C12.1175 7.41722 12.2558 7.5177 12.4156 7.53877L15.679 7.96894C16.0761 8.02128 16.2351 8.51065 15.9446 8.7864L13.5573 11.0526C13.4404 11.1635 13.3876 11.3261 13.417 11.4846L14.0163 14.7212C14.0892 15.115 13.6729 15.4175 13.3209 15.2264L10.4279 13.6563C10.2863 13.5794 10.1153 13.5794 9.97365 13.6563L7.08069 15.2264C6.72867 15.4175 6.31239 15.115 6.38531 14.7212L6.98463 11.4846C7.01398 11.3261 6.96115 11.1635 6.84424 11.0526L4.45698 8.7864C4.1665 8.51065 4.3255 8.02128 4.72259 7.96894L7.98595 7.53877C8.14576 7.5177 8.28406 7.41722 8.35348 7.27174L9.77103 4.30103Z" fill="white"/>
</svg>
